<svg id="svg" version="1.1" xmlns="http://www.w3.org/2000/svg" xmlns:xlink="http://www.w3.org/1999/xlink" width="400" height="200" viewBox="0, 0, 400,200"><g id="svgg"><path id="path0" d="M44.333 65.333 C 44.124 65.543,44.178 66.400,44.400 66.400 C 44.510 66.400,44.600 66.130,44.600 65.800 C 44.600 65.179,44.559 65.107,44.333 65.333 M44.384 68.650 C 44.231 69.115,44.237 69.799,44.395 69.897 C 44.520 69.974,44.600 69.747,44.600 69.312 C 44.600 68.746,44.476 68.368,44.384 68.650 M50.606 86.499 C 51.075 87.136,51.400 87.443,51.400 87.249 C 51.400 87.150,51.155 86.852,50.856 86.585 C 50.457 86.229,50.390 86.206,50.606 86.499 M182.400 95.300 L 182.400 98.000 186.000 98.000 L 189.600 98.000 189.600 95.300 L 189.600 92.600 186.000 92.600 L 182.400 92.600 182.400 95.300 M234.600 107.600 L 234.600 122.600 237.800 122.600 L 241.000 122.600 241.000 115.100 C 241.000 110.233,241.070 107.600,241.200 107.600 C 241.310 107.600,241.400 107.466,241.400 107.302 C 241.400 107.110,241.682 106.960,242.200 106.877 C 242.640 106.806,243.000 106.670,243.000 106.574 C 243.000 106.478,243.135 106.400,243.300 106.400 C 243.465 106.400,243.600 106.310,243.600 106.200 C 243.600 105.768,246.760 105.959,246.900 106.400 C 246.970 106.620,247.156 106.800,247.313 106.800 C 247.471 106.800,247.600 106.928,247.600 107.083 C 247.600 107.239,247.711 107.404,247.847 107.449 C 248.007 107.502,248.120 108.104,248.168 109.166 C 248.209 110.065,248.323 110.800,248.421 110.800 C 248.522 110.800,248.600 113.366,248.600 116.700 L 248.600 122.600 251.900 122.600 L 255.200 122.600 255.200 114.200 C 255.200 109.463,255.123 105.800,255.023 105.800 C 254.926 105.800,254.784 105.305,254.709 104.700 C 254.633 104.095,254.489 103.600,254.389 103.600 C 254.289 103.600,254.151 103.375,254.082 103.100 C 254.013 102.825,253.883 102.600,253.794 102.600 C 253.704 102.600,253.361 102.330,253.031 102.000 C 252.701 101.670,252.343 101.400,252.237 101.400 C 252.130 101.400,251.991 101.265,251.928 101.100 C 251.855 100.912,251.550 100.800,251.106 100.800 C 250.718 100.800,250.400 100.710,250.400 100.600 C 250.400 100.478,249.500 100.400,248.100 100.400 C 246.835 100.400,245.800 100.478,245.800 100.574 C 245.800 100.669,245.435 100.796,244.989 100.856 C 244.542 100.916,244.025 101.140,243.839 101.354 C 243.652 101.568,243.275 101.813,243.000 101.899 C 242.725 101.985,242.302 102.268,242.060 102.528 C 241.039 103.622,241.000 103.448,241.000 97.800 L 241.000 92.600 237.800 92.600 L 234.600 92.600 234.600 107.600 M129.200 93.400 C 129.200 93.510,128.795 93.600,128.300 93.600 C 127.805 93.600,127.400 93.678,127.400 93.774 C 127.400 93.870,126.770 94.010,126.000 94.086 C 125.230 94.162,124.600 94.307,124.600 94.408 C 124.600 94.510,124.375 94.649,124.100 94.718 C 123.825 94.787,123.600 94.916,123.600 95.006 C 123.600 95.095,123.330 95.228,123.000 95.300 C 122.670 95.372,122.400 95.509,122.400 95.602 C 122.400 95.696,122.203 95.836,121.963 95.912 C 121.447 96.075,120.200 97.345,120.200 97.707 C 120.200 97.844,120.065 98.009,119.900 98.072 C 119.735 98.136,119.600 98.363,119.600 98.577 C 119.600 98.791,119.501 99.000,119.380 99.040 C 119.260 99.080,119.113 99.538,119.054 100.057 C 118.996 100.575,118.870 101.000,118.774 101.000 C 118.678 101.000,118.600 101.720,118.600 102.600 C 118.600 103.480,118.679 104.200,118.775 104.200 C 118.871 104.200,118.992 104.642,119.044 105.183 C 119.096 105.724,119.287 106.316,119.469 106.498 C 119.651 106.680,119.800 106.957,119.800 107.114 C 119.800 107.271,119.890 107.400,120.000 107.400 C 120.110 107.400,120.200 107.498,120.200 107.618 C 120.200 107.930,121.250 109.000,121.556 109.000 C 121.697 109.000,121.862 109.130,121.923 109.288 C 121.984 109.446,122.296 109.633,122.617 109.704 C 122.938 109.774,123.200 109.905,123.200 109.994 C 123.200 110.083,123.537 110.219,123.950 110.296 C 124.362 110.373,124.756 110.528,124.825 110.640 C 124.894 110.752,125.367 110.890,125.875 110.948 C 126.384 111.005,126.800 111.130,126.800 111.226 C 126.800 111.322,127.115 111.400,127.500 111.400 C 127.885 111.400,128.200 111.477,128.200 111.572 C 128.200 111.666,128.757 111.801,129.439 111.872 C 130.120 111.944,130.728 112.081,130.789 112.177 C 130.850 112.273,131.366 112.415,131.935 112.493 C 132.536 112.574,133.016 112.752,133.079 112.917 C 133.139 113.073,133.360 113.200,133.571 113.200 C 133.852 113.200,133.991 113.389,134.087 113.900 C 134.159 114.285,134.304 114.600,134.409 114.600 C 134.514 114.600,134.600 114.735,134.600 114.900 C 134.600 115.065,134.510 115.200,134.400 115.200 C 134.290 115.200,134.200 115.366,134.200 115.569 C 134.200 115.985,133.565 116.800,133.241 116.800 C 133.124 116.800,132.871 116.958,132.678 117.150 C 132.253 117.575,126.104 117.687,125.843 117.274 C 125.764 117.150,125.317 116.985,124.850 116.907 C 124.383 116.829,124.000 116.683,124.000 116.582 C 124.000 116.482,123.775 116.400,123.500 116.400 C 123.225 116.400,123.000 116.310,123.000 116.200 C 123.000 116.090,122.871 116.000,122.714 116.000 C 122.557 116.000,122.305 115.877,122.155 115.726 C 122.004 115.576,121.661 115.383,121.391 115.299 C 121.121 115.214,120.696 114.926,120.448 114.659 C 120.199 114.392,119.681 114.123,119.298 114.061 L 118.600 113.948 118.600 117.474 C 118.600 120.475,118.645 121.000,118.900 121.000 C 119.065 121.000,119.200 121.090,119.200 121.200 C 119.200 121.310,119.425 121.400,119.700 121.400 C 119.975 121.400,120.200 121.480,120.200 121.578 C 120.200 121.675,120.537 121.819,120.950 121.896 C 121.362 121.973,121.746 122.113,121.804 122.206 C 121.861 122.299,122.626 122.439,123.504 122.517 C 124.382 122.595,125.153 122.740,125.218 122.839 C 125.373 123.076,132.226 123.078,132.381 122.841 C 132.446 122.741,133.130 122.597,133.900 122.520 C 134.670 122.443,135.329 122.298,135.365 122.197 C 135.400 122.095,135.738 121.955,136.115 121.884 C 136.492 121.813,136.800 121.675,136.800 121.578 C 136.800 121.480,136.935 121.400,137.100 121.400 C 137.265 121.400,137.400 121.310,137.400 121.200 C 137.400 121.090,137.505 121.000,137.633 121.000 C 137.882 121.000,137.997 120.902,139.400 119.507 C 140.682 118.232,140.794 118.078,140.929 117.404 C 140.996 117.072,141.129 116.800,141.225 116.800 C 141.321 116.800,141.400 116.575,141.400 116.300 C 141.400 116.025,141.490 115.800,141.600 115.800 C 142.150 115.800,141.769 110.894,141.181 110.400 C 141.115 110.345,140.999 110.045,140.923 109.733 C 140.846 109.421,140.675 109.036,140.542 108.877 C 139.808 107.999,139.136 107.400,138.885 107.400 C 138.728 107.400,138.600 107.312,138.600 107.204 C 138.600 107.096,138.375 106.951,138.100 106.882 C 137.825 106.813,137.600 106.676,137.600 106.578 C 137.600 106.480,137.465 106.400,137.300 106.400 C 137.135 106.400,137.000 106.322,137.000 106.226 C 137.000 106.130,136.648 105.995,136.217 105.926 C 135.786 105.857,135.402 105.706,135.364 105.591 C 135.325 105.475,134.778 105.327,134.147 105.262 C 133.516 105.197,133.000 105.074,133.000 104.988 C 133.000 104.902,132.415 104.769,131.700 104.693 C 130.985 104.616,130.400 104.486,130.400 104.403 C 130.400 104.320,129.860 104.191,129.200 104.116 C 128.540 104.041,128.000 103.895,128.000 103.790 C 128.000 103.686,127.865 103.600,127.700 103.600 C 127.535 103.600,127.400 103.520,127.400 103.422 C 127.400 103.324,127.175 103.187,126.900 103.118 C 126.625 103.049,126.400 102.859,126.400 102.696 C 126.400 102.533,126.310 102.400,126.200 102.400 C 126.090 102.400,126.000 102.040,126.000 101.600 C 126.000 101.160,126.090 100.800,126.200 100.800 C 126.310 100.800,126.400 100.665,126.400 100.500 C 126.400 100.335,126.502 100.200,126.627 100.200 C 126.752 100.200,127.084 99.953,127.364 99.650 L 127.874 99.100 131.270 99.100 C 133.812 99.100,134.688 99.163,134.750 99.350 C 134.796 99.488,135.186 99.657,135.617 99.726 C 136.048 99.795,136.400 99.922,136.400 100.010 C 136.400 100.097,136.670 100.228,137.000 100.300 C 137.330 100.372,137.600 100.505,137.600 100.594 C 137.600 100.684,137.825 100.813,138.100 100.882 C 138.375 100.951,138.600 101.096,138.600 101.204 C 138.600 101.312,138.696 101.400,138.814 101.400 C 138.932 101.400,139.164 101.535,139.329 101.700 C 139.494 101.865,139.892 102.000,140.214 102.000 L 140.800 102.000 140.800 98.600 L 140.800 95.200 140.300 95.200 C 140.025 95.200,139.800 95.120,139.800 95.022 C 139.800 94.925,139.463 94.781,139.050 94.704 C 138.638 94.627,138.253 94.485,138.194 94.390 C 138.135 94.295,137.347 94.155,136.443 94.080 C 135.539 94.004,134.800 93.865,134.800 93.771 C 134.800 93.677,134.305 93.600,133.700 93.600 C 133.095 93.600,132.600 93.510,132.600 93.400 C 132.600 93.282,131.900 93.200,130.900 93.200 C 129.900 93.200,129.200 93.282,129.200 93.400 M195.800 97.800 L 195.800 100.800 194.500 100.800 L 193.200 100.800 193.200 103.300 L 193.200 105.800 194.478 105.800 L 195.755 105.800 195.829 112.192 C 195.884 116.930,195.968 118.648,196.152 118.832 C 196.288 118.968,196.400 119.242,196.400 119.440 C 196.400 119.638,196.480 119.800,196.578 119.800 C 196.676 119.800,196.813 120.025,196.882 120.300 C 196.951 120.575,197.096 120.800,197.204 120.800 C 197.312 120.800,197.400 120.935,197.400 121.100 C 197.400 121.265,197.494 121.400,197.610 121.400 C 197.725 121.400,198.020 121.616,198.265 121.881 C 198.562 122.201,199.043 122.411,199.705 122.509 C 200.252 122.590,200.758 122.745,200.828 122.854 C 201.006 123.130,206.870 123.089,206.963 122.811 C 207.002 122.695,207.333 122.600,207.700 122.600 C 208.997 122.600,209.000 122.595,209.000 119.979 L 209.000 117.600 208.217 117.600 C 207.786 117.600,207.398 117.707,207.354 117.837 C 207.218 118.245,204.346 118.172,203.922 117.750 C 203.729 117.558,203.490 117.400,203.390 117.400 C 203.289 117.400,203.151 117.175,203.082 116.900 C 203.013 116.625,202.876 116.400,202.778 116.400 C 202.678 116.400,202.600 114.070,202.600 111.100 L 202.600 105.800 205.800 105.800 L 209.000 105.800 209.000 103.540 C 209.000 100.649,209.190 100.800,205.560 100.800 L 202.600 100.800 202.600 97.800 L 202.600 94.800 199.200 94.800 L 195.800 94.800 195.800 97.800 M47.200 98.144 C 46.705 98.189,46.215 98.310,46.110 98.413 C 46.006 98.516,45.668 98.600,45.360 98.600 C 45.052 98.600,44.800 98.680,44.800 98.777 C 44.800 98.875,44.395 99.015,43.900 99.090 C 43.405 99.164,43.000 99.297,43.000 99.387 C 43.000 99.476,42.640 99.606,42.200 99.677 C 41.760 99.747,41.400 99.887,41.400 99.986 C 41.400 100.086,41.130 100.228,40.800 100.300 C 40.470 100.372,40.200 100.505,40.200 100.594 C 40.200 100.684,39.958 100.817,39.662 100.892 C 39.366 100.966,38.983 101.188,38.812 101.385 C 38.640 101.582,38.298 101.807,38.050 101.885 C 37.803 101.963,37.600 102.111,37.600 102.213 C 37.600 102.316,37.488 102.403,37.350 102.406 C 37.212 102.409,36.838 102.679,36.517 103.006 C 36.196 103.333,35.866 103.600,35.785 103.600 C 35.396 103.600,31.800 107.482,31.800 107.901 C 31.800 107.965,31.575 108.243,31.300 108.518 C 31.025 108.793,30.800 109.108,30.800 109.219 C 30.800 109.329,30.583 109.620,30.317 109.867 C 30.052 110.113,29.772 110.648,29.695 111.057 C 29.618 111.466,29.483 111.800,29.394 111.800 C 29.305 111.800,29.172 112.070,29.100 112.400 C 29.028 112.730,28.885 113.000,28.784 113.000 C 28.683 113.000,28.600 113.135,28.600 113.300 C 28.600 113.465,28.520 113.600,28.422 113.600 C 28.324 113.600,28.181 113.847,28.106 114.148 C 28.030 114.449,27.888 114.745,27.791 114.806 C 27.693 114.866,27.552 115.452,27.476 116.108 C 27.401 116.763,27.261 117.352,27.164 117.415 C 27.068 117.478,26.934 117.996,26.867 118.565 C 26.799 119.134,26.667 119.600,26.572 119.600 C 26.477 119.600,26.400 119.942,26.400 120.360 C 26.400 120.778,26.288 121.233,26.150 121.370 C 25.965 121.555,25.900 122.783,25.900 126.100 C 25.900 129.417,25.965 130.645,26.150 130.830 C 26.288 130.967,26.400 131.422,26.400 131.840 C 26.400 132.258,26.477 132.600,26.572 132.600 C 26.667 132.600,26.799 133.066,26.867 133.635 C 26.934 134.204,27.068 134.722,27.164 134.785 C 27.261 134.848,27.401 135.437,27.476 136.092 C 27.552 136.748,27.693 137.334,27.791 137.394 C 27.888 137.455,28.030 137.751,28.106 138.052 C 28.181 138.353,28.324 138.600,28.422 138.600 C 28.520 138.600,28.600 138.735,28.600 138.900 C 28.600 139.065,28.683 139.200,28.784 139.200 C 28.885 139.200,29.028 139.470,29.100 139.800 C 29.172 140.130,29.311 140.400,29.407 140.400 C 29.503 140.400,29.644 140.738,29.720 141.150 C 29.797 141.563,30.071 142.098,30.329 142.340 C 30.588 142.583,30.800 142.871,30.800 142.981 C 30.800 143.092,31.025 143.407,31.300 143.682 C 31.575 143.957,31.800 144.235,31.800 144.299 C 31.800 144.704,35.404 148.600,35.779 148.600 C 35.864 148.600,36.196 148.867,36.517 149.194 C 36.837 149.521,37.212 149.791,37.350 149.794 C 37.488 149.797,37.600 149.884,37.600 149.987 C 37.600 150.089,37.798 150.236,38.041 150.313 C 38.283 150.390,38.604 150.576,38.755 150.726 C 38.905 150.877,39.157 151.000,39.314 151.000 C 39.471 151.000,39.600 151.090,39.600 151.200 C 39.600 151.310,39.735 151.400,39.900 151.400 C 40.065 151.400,40.200 151.483,40.200 151.584 C 40.200 151.685,40.470 151.828,40.800 151.900 C 41.130 151.972,41.400 152.114,41.400 152.214 C 41.400 152.313,41.760 152.453,42.200 152.523 C 42.640 152.594,43.000 152.724,43.000 152.813 C 43.000 152.903,43.405 153.036,43.900 153.110 C 44.395 153.185,44.800 153.325,44.800 153.423 C 44.800 153.520,45.052 153.600,45.360 153.600 C 45.668 153.600,46.032 153.713,46.170 153.850 C 46.536 154.216,96.264 154.216,96.630 153.850 C 96.767 153.713,97.132 153.600,97.440 153.600 C 97.748 153.600,98.000 153.520,98.000 153.423 C 98.000 153.325,98.405 153.185,98.900 153.110 C 99.395 153.036,99.800 152.903,99.800 152.813 C 99.800 152.724,100.160 152.594,100.600 152.523 C 101.040 152.453,101.400 152.313,101.400 152.214 C 101.400 152.114,101.670 151.972,102.000 151.900 C 102.330 151.828,102.600 151.685,102.600 151.584 C 102.600 151.483,102.735 151.400,102.900 151.400 C 103.065 151.400,103.200 151.310,103.200 151.200 C 103.200 151.090,103.383 151.000,103.606 151.000 C 103.830 151.000,104.061 150.873,104.121 150.718 C 104.180 150.563,104.447 150.381,104.714 150.314 C 104.982 150.247,105.200 150.104,105.200 149.996 C 105.200 149.888,105.313 149.797,105.450 149.794 C 105.588 149.791,105.963 149.521,106.283 149.194 C 106.604 148.868,106.938 148.600,107.025 148.600 C 107.408 148.600,111.000 144.714,111.000 144.299 C 111.000 144.235,111.225 143.957,111.500 143.682 C 111.775 143.407,112.000 143.061,112.000 142.912 C 112.000 142.764,112.135 142.591,112.300 142.528 C 112.465 142.464,112.600 142.275,112.600 142.106 C 112.600 141.938,112.680 141.800,112.778 141.800 C 112.875 141.800,113.015 141.485,113.087 141.100 C 113.159 140.715,113.304 140.400,113.409 140.400 C 113.514 140.400,113.600 140.265,113.600 140.100 C 113.600 139.935,113.683 139.800,113.784 139.800 C 113.885 139.800,114.028 139.530,114.100 139.200 C 114.172 138.870,114.307 138.600,114.400 138.600 C 114.493 138.600,114.628 138.330,114.700 138.000 C 114.772 137.670,114.906 137.400,114.996 137.400 C 115.087 137.400,115.225 136.838,115.304 136.150 C 115.383 135.463,115.530 134.848,115.629 134.785 C 115.729 134.722,115.866 134.204,115.933 133.635 C 116.001 133.066,116.133 132.600,116.228 132.600 C 116.323 132.600,116.400 132.258,116.400 131.840 C 116.400 131.422,116.513 130.967,116.650 130.830 C 116.835 130.645,116.900 129.417,116.900 126.100 C 116.900 122.783,116.835 121.555,116.650 121.370 C 116.513 121.233,116.400 120.778,116.400 120.360 C 116.400 119.942,116.323 119.600,116.228 119.600 C 116.133 119.600,116.001 119.134,115.933 118.565 C 115.866 117.996,115.729 117.478,115.629 117.415 C 115.530 117.352,115.383 116.738,115.304 116.050 C 115.225 115.363,115.087 114.800,114.996 114.800 C 114.906 114.800,114.772 114.530,114.700 114.200 C 114.628 113.870,114.493 113.600,114.400 113.600 C 114.307 113.600,114.172 113.330,114.100 113.000 C 114.028 112.670,113.885 112.400,113.784 112.400 C 113.683 112.400,113.600 112.265,113.600 112.100 C 113.600 111.935,113.520 111.800,113.422 111.800 C 113.325 111.800,113.185 111.485,113.113 111.100 C 113.041 110.715,112.896 110.400,112.791 110.400 C 112.686 110.400,112.600 110.262,112.600 110.094 C 112.600 109.925,112.465 109.736,112.300 109.672 C 112.135 109.609,112.000 109.436,112.000 109.288 C 112.000 109.139,111.775 108.793,111.500 108.518 C 111.225 108.243,111.000 107.965,111.000 107.901 C 111.000 107.514,107.431 103.600,107.078 103.600 C 106.955 103.600,106.461 103.194,106.041 102.750 C 105.860 102.558,105.596 102.400,105.456 102.400 C 105.315 102.400,105.200 102.316,105.200 102.213 C 105.200 102.111,104.998 101.963,104.750 101.885 C 104.502 101.807,104.187 101.583,104.050 101.387 C 103.912 101.192,103.530 100.972,103.200 100.900 C 102.870 100.827,102.600 100.693,102.600 100.600 C 102.600 100.507,102.330 100.372,102.000 100.300 C 101.670 100.228,101.400 100.086,101.400 99.986 C 101.400 99.887,101.040 99.747,100.600 99.677 C 100.160 99.606,99.800 99.476,99.800 99.387 C 99.800 99.297,99.395 99.164,98.900 99.090 C 98.405 99.015,98.000 98.875,98.000 98.777 C 98.000 98.680,97.748 98.600,97.440 98.600 C 97.132 98.600,96.768 98.488,96.630 98.350 C 96.391 98.110,49.731 97.916,47.200 98.144 M269.800 99.974 C 269.800 100.070,269.170 100.210,268.400 100.286 C 267.630 100.362,267.000 100.497,267.000 100.586 C 267.000 100.675,266.635 100.796,266.189 100.856 C 265.742 100.916,265.225 101.140,265.039 101.354 C 264.852 101.568,264.475 101.813,264.200 101.900 C 263.609 102.085,261.800 103.889,261.800 104.293 C 261.800 104.447,261.626 104.628,261.414 104.696 C 261.197 104.764,260.971 105.078,260.898 105.409 C 260.827 105.734,260.696 106.000,260.607 106.000 C 260.518 106.000,260.381 106.428,260.303 106.950 C 260.225 107.472,260.057 107.964,259.930 108.043 C 259.617 108.237,259.607 114.953,259.919 115.157 C 260.040 115.236,260.195 115.659,260.264 116.098 C 260.334 116.538,260.483 116.928,260.595 116.965 C 260.708 117.003,260.800 117.238,260.800 117.489 C 260.800 117.741,261.023 118.111,261.300 118.319 C 261.575 118.526,261.800 118.798,261.800 118.923 C 261.800 119.268,263.356 120.800,263.706 120.800 C 263.875 120.800,264.064 120.935,264.128 121.100 C 264.191 121.265,264.368 121.400,264.521 121.400 C 264.675 121.400,264.800 121.483,264.800 121.584 C 264.800 121.685,265.070 121.828,265.400 121.900 C 265.730 121.972,266.000 122.107,266.000 122.199 C 266.000 122.291,266.675 122.429,267.500 122.506 C 268.325 122.584,269.000 122.726,269.000 122.823 C 269.000 122.921,270.530 123.000,272.400 123.000 C 274.270 123.000,275.800 122.922,275.800 122.826 C 275.800 122.730,276.520 122.589,277.400 122.512 C 278.280 122.435,279.000 122.293,279.000 122.195 C 279.000 122.098,279.315 121.959,279.700 121.887 C 280.085 121.815,280.400 121.675,280.400 121.578 C 280.400 121.480,280.535 121.400,280.700 121.400 C 281.011 121.400,281.166 116.466,280.879 115.716 C 280.747 115.373,280.200 115.276,280.200 115.596 C 280.200 115.704,279.975 115.849,279.700 115.918 C 279.425 115.987,279.200 116.124,279.200 116.222 C 279.200 116.320,279.065 116.400,278.900 116.400 C 278.735 116.400,278.600 116.483,278.600 116.584 C 278.600 116.685,278.330 116.828,278.000 116.900 C 277.670 116.972,277.400 117.108,277.400 117.201 C 277.400 117.295,276.905 117.433,276.300 117.509 C 275.695 117.584,275.200 117.726,275.200 117.823 C 275.200 117.920,274.210 118.000,273.000 118.000 C 271.790 118.000,270.800 117.922,270.800 117.826 C 270.800 117.731,270.442 117.605,270.005 117.546 C 269.568 117.487,269.067 117.296,268.891 117.120 C 268.715 116.944,268.476 116.800,268.359 116.800 C 268.074 116.800,267.400 116.006,267.400 115.669 C 267.400 115.521,267.317 115.400,267.216 115.400 C 267.115 115.400,266.972 115.130,266.900 114.800 C 266.828 114.470,266.685 114.200,266.584 114.200 C 266.483 114.200,266.400 113.975,266.400 113.700 L 266.400 113.200 273.900 113.200 L 281.400 113.200 281.400 110.600 C 281.400 109.170,281.323 108.000,281.228 108.000 C 281.134 108.000,280.999 107.443,280.928 106.761 C 280.856 106.080,280.716 105.471,280.615 105.409 C 280.514 105.347,280.370 105.049,280.294 104.748 C 280.219 104.447,280.076 104.200,279.978 104.200 C 279.880 104.200,279.800 104.064,279.800 103.898 C 279.800 103.732,279.620 103.442,279.400 103.254 C 279.180 103.065,279.000 102.835,279.000 102.741 C 279.000 102.476,278.526 102.067,278.041 101.913 C 277.798 101.836,277.600 101.689,277.600 101.587 C 277.600 101.484,277.465 101.400,277.300 101.400 C 277.135 101.400,277.000 101.311,277.000 101.202 C 277.000 101.094,276.640 100.947,276.200 100.877 C 275.760 100.806,275.400 100.676,275.400 100.587 C 275.400 100.497,274.770 100.362,274.000 100.286 C 273.230 100.210,272.600 100.070,272.600 99.974 C 272.600 99.878,271.970 99.800,271.200 99.800 C 270.430 99.800,269.800 99.878,269.800 99.974 M220.850 100.338 C 220.163 100.383,219.600 100.492,219.600 100.582 C 219.600 100.671,219.128 100.800,218.551 100.868 C 217.974 100.937,217.472 101.084,217.435 101.196 C 217.397 101.308,217.239 101.400,217.083 101.400 C 216.928 101.400,216.800 101.479,216.800 101.575 C 216.800 101.671,216.527 101.805,216.194 101.871 C 215.861 101.938,215.378 102.219,215.121 102.496 C 214.864 102.773,214.572 103.000,214.472 103.000 C 214.276 103.000,213.600 103.721,213.600 103.929 C 213.600 103.998,213.379 104.259,213.108 104.510 C 212.838 104.761,212.558 105.199,212.486 105.483 C 212.415 105.767,212.286 106.000,212.201 106.000 C 212.115 106.000,211.985 106.315,211.913 106.700 C 211.841 107.085,211.696 107.400,211.591 107.400 C 211.486 107.400,211.400 107.760,211.400 108.200 C 211.400 108.640,211.310 109.000,211.200 109.000 C 211.076 109.000,211.000 110.067,211.000 111.800 C 211.000 113.533,211.076 114.600,211.200 114.600 C 211.310 114.600,211.400 114.915,211.400 115.300 C 211.400 115.685,211.480 116.000,211.578 116.000 C 211.675 116.000,211.815 116.315,211.887 116.700 C 211.959 117.085,212.094 117.400,212.187 117.400 C 212.280 117.400,212.418 117.643,212.492 117.940 C 212.567 118.237,212.846 118.683,213.114 118.930 C 213.381 119.178,213.600 119.429,213.600 119.488 C 213.600 119.683,214.285 120.400,214.472 120.400 C 214.572 120.400,214.844 120.605,215.077 120.855 C 215.501 121.310,216.768 122.000,217.180 122.000 C 217.301 122.000,217.400 122.085,217.400 122.188 C 217.400 122.291,218.030 122.438,218.800 122.514 C 219.570 122.590,220.200 122.730,220.200 122.826 C 220.200 122.922,221.505 123.000,223.100 123.000 C 224.695 123.000,226.000 122.923,226.000 122.828 C 226.000 122.734,226.563 122.598,227.250 122.527 C 227.938 122.455,228.529 122.310,228.565 122.204 C 228.600 122.099,228.960 121.952,229.365 121.877 C 230.384 121.690,230.394 121.659,230.397 118.350 L 230.400 115.400 229.770 115.400 C 229.316 115.400,228.955 115.591,228.475 116.085 C 228.109 116.462,227.628 116.828,227.405 116.898 C 227.182 116.969,227.000 117.104,227.000 117.199 C 227.000 117.294,226.505 117.433,225.900 117.509 C 225.295 117.584,224.800 117.726,224.800 117.823 C 224.800 117.920,224.170 118.000,223.400 118.000 C 222.630 118.000,222.000 117.922,222.000 117.826 C 222.000 117.730,221.640 117.594,221.200 117.523 C 220.760 117.453,220.400 117.304,220.400 117.191 C 220.400 117.079,220.243 116.928,220.050 116.855 C 219.554 116.667,219.277 116.357,219.098 115.791 C 219.013 115.521,218.756 115.138,218.528 114.939 C 218.025 114.501,217.864 109.212,218.350 109.050 C 218.488 109.004,218.600 108.794,218.600 108.583 C 218.600 108.373,218.680 108.200,218.778 108.200 C 218.876 108.200,219.013 107.977,219.081 107.704 C 219.272 106.943,220.322 105.988,221.107 105.860 C 221.488 105.798,221.800 105.669,221.800 105.574 C 221.800 105.478,222.565 105.400,223.500 105.400 C 224.500 105.400,225.200 105.482,225.200 105.600 C 225.200 105.710,225.464 105.800,225.786 105.800 C 226.108 105.800,226.506 105.935,226.671 106.100 C 226.836 106.265,227.068 106.400,227.186 106.400 C 227.304 106.400,227.400 106.490,227.400 106.600 C 227.400 106.710,227.515 106.800,227.656 106.800 C 227.796 106.800,228.060 106.958,228.241 107.150 C 228.887 107.834,229.191 108.000,229.797 108.000 L 230.410 108.000 230.355 104.950 L 230.300 101.900 229.817 101.832 C 229.552 101.794,229.192 101.589,229.017 101.376 C 228.806 101.118,228.334 100.948,227.600 100.864 C 226.995 100.795,226.455 100.672,226.400 100.591 C 226.273 100.404,222.495 100.231,220.850 100.338 M182.600 111.579 C 182.600 121.223,182.633 122.370,182.916 122.479 C 183.090 122.545,184.575 122.600,186.216 122.600 L 189.200 122.600 189.200 111.700 L 189.200 100.800 185.900 100.800 L 182.600 100.800 182.600 111.579 M286.000 111.700 L 286.000 122.600 289.300 122.600 L 292.600 122.600 292.600 115.413 L 292.600 108.227 293.050 108.087 C 293.298 108.009,293.564 107.846,293.643 107.723 C 293.738 107.574,294.966 107.493,297.343 107.479 L 300.900 107.458 300.955 104.099 L 301.010 100.741 298.960 100.854 C 297.766 100.920,296.881 101.057,296.839 101.184 C 296.799 101.303,296.594 101.400,296.383 101.400 C 296.173 101.400,296.000 101.483,296.000 101.584 C 296.000 101.685,295.730 101.828,295.400 101.900 C 295.070 101.972,294.800 102.117,294.800 102.222 C 294.800 102.327,294.643 102.473,294.450 102.546 C 294.108 102.677,293.876 102.840,293.307 103.350 C 292.747 103.852,292.600 103.613,292.600 102.200 L 292.600 100.800 289.300 100.800 L 286.000 100.800 286.000 111.700 M144.105 102.050 C 144.184 102.628,144.316 103.145,144.400 103.200 C 144.483 103.255,144.618 103.705,144.700 104.200 C 144.782 104.695,144.930 105.152,145.030 105.215 C 145.129 105.278,145.266 105.796,145.333 106.365 C 145.401 106.934,145.521 107.400,145.602 107.400 C 145.682 107.400,145.798 107.781,145.861 108.246 C 145.923 108.711,146.070 109.123,146.187 109.162 C 146.304 109.201,146.400 109.496,146.400 109.817 C 146.400 110.138,146.477 110.400,146.572 110.400 C 146.667 110.400,146.799 110.866,146.867 111.435 C 146.934 112.004,147.076 112.523,147.182 112.589 C 147.287 112.654,147.436 113.178,147.513 113.754 C 147.589 114.329,147.723 114.800,147.811 114.800 C 147.899 114.800,148.033 115.295,148.109 115.900 C 148.184 116.505,148.326 117.000,148.423 117.000 C 148.520 117.000,148.600 117.225,148.600 117.500 C 148.600 117.775,148.684 118.000,148.786 118.000 C 148.888 118.000,149.033 118.495,149.109 119.100 C 149.184 119.705,149.314 120.200,149.397 120.200 C 149.480 120.200,149.598 120.581,149.661 121.046 C 149.723 121.511,149.870 121.923,149.987 121.962 C 150.104 122.001,150.200 122.161,150.200 122.317 C 150.200 122.551,150.827 122.600,153.798 122.600 L 157.395 122.600 157.523 121.800 C 157.594 121.360,157.727 121.000,157.819 121.000 C 157.911 121.000,158.046 120.550,158.119 120.000 C 158.192 119.450,158.330 119.000,158.426 119.000 C 158.522 119.000,158.600 118.685,158.600 118.300 C 158.600 117.915,158.678 117.600,158.774 117.600 C 158.869 117.600,158.997 117.227,159.059 116.771 C 159.120 116.315,159.260 115.887,159.370 115.819 C 159.479 115.751,159.633 115.134,159.711 114.448 C 159.788 113.761,159.918 113.200,159.999 113.200 C 160.081 113.200,160.197 112.827,160.259 112.371 C 160.320 111.915,160.457 111.488,160.565 111.421 C 160.672 111.355,160.824 110.783,160.903 110.150 C 161.112 108.469,161.703 108.498,161.900 110.200 C 161.977 110.860,162.109 111.400,162.193 111.400 C 162.278 111.400,162.397 111.773,162.459 112.229 C 162.520 112.685,162.656 113.112,162.761 113.179 C 162.866 113.245,163.017 113.863,163.096 114.550 C 163.175 115.238,163.320 115.800,163.420 115.800 C 163.519 115.800,163.600 116.017,163.600 116.283 C 163.600 116.549,163.692 116.797,163.804 116.835 C 163.916 116.872,164.063 117.374,164.132 117.951 C 164.200 118.528,164.322 119.000,164.402 119.000 C 164.483 119.000,164.608 119.450,164.681 120.000 C 164.754 120.550,164.889 121.000,164.981 121.000 C 165.073 121.000,165.206 121.360,165.277 121.800 L 165.405 122.600 169.002 122.600 C 172.067 122.600,172.600 122.556,172.600 122.300 C 172.600 122.135,172.678 122.000,172.774 122.000 C 172.869 122.000,172.998 121.619,173.061 121.154 C 173.123 120.689,173.270 120.277,173.387 120.238 C 173.504 120.199,173.600 119.909,173.600 119.595 C 173.600 119.281,173.678 118.975,173.774 118.916 C 173.869 118.857,174.007 118.357,174.081 117.804 C 174.154 117.252,174.294 116.800,174.392 116.800 C 174.491 116.800,174.633 116.305,174.709 115.700 C 174.784 115.095,174.913 114.600,174.995 114.600 C 175.077 114.600,175.199 114.134,175.267 113.565 C 175.334 112.996,175.473 112.478,175.575 112.415 C 175.677 112.352,175.825 111.873,175.903 111.350 C 175.981 110.828,176.125 110.400,176.223 110.400 C 176.320 110.400,176.400 110.130,176.400 109.800 C 176.400 109.470,176.478 109.200,176.574 109.200 C 176.669 109.200,176.797 108.827,176.859 108.371 C 176.920 107.915,177.056 107.488,177.161 107.421 C 177.266 107.355,177.417 106.738,177.496 106.050 C 177.575 105.363,177.715 104.800,177.807 104.800 C 177.900 104.800,178.036 104.395,178.110 103.900 C 178.185 103.405,178.325 103.000,178.423 103.000 C 178.520 103.000,178.600 102.775,178.600 102.500 C 178.600 102.225,178.696 102.000,178.814 102.000 C 178.932 102.000,178.999 101.798,178.964 101.550 C 178.901 101.106,178.856 101.099,175.476 101.045 L 172.052 100.991 171.926 101.620 C 171.857 101.967,171.800 102.464,171.800 102.725 C 171.800 102.986,171.710 103.200,171.600 103.200 C 171.490 103.200,171.400 103.425,171.400 103.700 C 171.400 103.975,171.315 104.200,171.212 104.200 C 171.109 104.200,170.962 104.830,170.886 105.600 C 170.810 106.370,170.683 107.000,170.603 107.000 C 170.523 107.000,170.398 107.563,170.327 108.250 C 170.255 108.938,170.112 109.528,170.009 109.563 C 169.906 109.598,169.760 110.250,169.685 111.013 C 169.610 111.776,169.483 112.400,169.402 112.400 C 169.322 112.400,169.204 112.904,169.140 113.521 C 169.009 114.791,168.977 114.855,168.545 114.690 C 168.351 114.615,168.182 114.198,168.098 113.585 C 168.023 113.043,167.890 112.600,167.801 112.600 C 167.712 112.600,167.577 112.060,167.500 111.400 C 167.423 110.740,167.286 110.200,167.195 110.200 C 167.103 110.200,166.967 109.705,166.891 109.100 C 166.816 108.495,166.674 108.000,166.577 108.000 C 166.480 108.000,166.400 107.730,166.400 107.400 C 166.400 107.070,166.323 106.800,166.228 106.800 C 166.133 106.800,166.001 106.334,165.933 105.765 C 165.866 105.196,165.724 104.677,165.618 104.611 C 165.513 104.546,165.364 104.022,165.287 103.446 C 165.211 102.871,165.070 102.400,164.974 102.400 C 164.878 102.400,164.800 102.085,164.800 101.700 L 164.800 101.000 161.786 101.000 C 158.277 101.000,158.288 100.995,158.087 102.773 C 158.011 103.448,157.880 104.000,157.796 104.000 C 157.713 104.000,157.585 104.315,157.513 104.700 C 157.441 105.085,157.306 105.400,157.214 105.400 C 157.122 105.400,156.984 105.985,156.907 106.700 C 156.831 107.415,156.685 108.000,156.584 108.000 C 156.483 108.000,156.400 108.225,156.400 108.500 C 156.400 108.775,156.313 109.000,156.207 109.000 C 156.101 109.000,155.954 109.450,155.881 110.000 C 155.808 110.550,155.683 111.000,155.602 111.000 C 155.522 111.000,155.401 111.466,155.333 112.035 C 155.266 112.604,155.127 113.122,155.025 113.185 C 154.923 113.248,154.775 113.728,154.697 114.250 C 154.526 115.391,154.263 115.479,154.098 114.450 C 154.032 114.038,153.893 113.544,153.789 113.353 C 153.685 113.162,153.600 112.644,153.600 112.203 C 153.600 111.761,153.520 111.400,153.423 111.400 C 153.326 111.400,153.184 110.905,153.109 110.300 C 153.033 109.695,152.893 109.200,152.798 109.200 C 152.702 109.200,152.562 108.570,152.486 107.800 C 152.410 107.030,152.283 106.400,152.202 106.400 C 152.122 106.400,152.003 105.884,151.938 105.253 C 151.873 104.622,151.725 104.075,151.610 104.037 C 151.494 103.998,151.400 103.659,151.400 103.283 C 151.400 102.908,151.310 102.600,151.200 102.600 C 151.090 102.600,151.000 102.240,151.000 101.800 L 151.000 101.000 147.481 101.000 L 143.962 101.000 144.105 102.050 M271.400 105.000 C 271.400 105.110,271.657 105.200,271.972 105.200 C 272.831 105.200,273.901 106.299,274.070 107.356 L 274.205 108.200 270.537 108.200 L 266.869 108.200 266.957 107.600 C 267.006 107.270,267.125 107.000,267.223 107.000 C 267.320 107.000,267.400 106.878,267.400 106.729 C 267.400 106.147,268.374 105.396,269.293 105.270 C 269.792 105.202,270.200 105.068,270.200 104.973 C 270.200 104.878,270.470 104.800,270.800 104.800 C 271.130 104.800,271.400 104.890,271.400 105.000 M49.683 106.550 C 49.897 106.764,50.277 106.747,50.437 106.516 C 50.524 106.391,50.775 106.425,51.120 106.609 C 51.544 106.835,51.684 106.844,51.749 106.650 C 51.796 106.513,51.983 106.401,52.167 106.403 C 52.455 106.406,52.459 106.432,52.200 106.600 C 51.978 106.744,52.107 106.798,52.700 106.810 C 53.901 106.835,54.837 106.982,55.082 107.184 C 55.202 107.283,55.638 107.427,56.050 107.504 C 56.463 107.581,56.800 107.723,56.800 107.820 C 56.800 107.916,57.157 108.052,57.594 108.122 C 58.124 108.207,58.428 108.375,58.508 108.625 C 58.573 108.831,58.757 109.000,58.915 109.000 C 59.074 109.000,59.358 109.180,59.546 109.400 C 59.735 109.620,60.004 109.800,60.144 109.800 C 60.285 109.800,60.400 109.888,60.400 109.996 C 60.400 110.104,60.625 110.249,60.900 110.318 C 61.175 110.387,61.400 110.569,61.400 110.722 C 61.400 110.875,61.484 111.000,61.587 111.000 C 61.689 111.000,61.832 111.187,61.905 111.415 C 61.977 111.643,62.081 111.786,62.135 111.731 C 62.284 111.582,63.200 112.435,63.200 112.723 C 63.200 112.860,63.380 113.030,63.600 113.100 C 63.819 113.170,64.054 113.446,64.121 113.713 C 64.188 113.981,64.324 114.200,64.422 114.200 C 64.520 114.200,64.600 114.336,64.600 114.502 C 64.600 114.668,64.780 114.958,65.000 115.146 C 65.220 115.335,65.400 115.604,65.400 115.744 C 65.400 115.885,65.495 116.000,65.612 116.000 C 65.728 116.000,65.771 116.085,65.707 116.188 C 65.644 116.291,65.715 116.491,65.865 116.632 C 66.016 116.773,66.098 117.048,66.046 117.244 C 65.995 117.440,66.054 117.600,66.177 117.600 C 66.300 117.600,66.400 117.775,66.400 117.988 C 66.400 118.202,66.480 118.426,66.577 118.486 C 66.674 118.546,66.815 119.001,66.889 119.498 C 66.964 119.994,67.102 120.400,67.196 120.400 C 67.330 120.400,67.577 121.821,67.689 123.233 C 67.695 123.307,67.767 123.434,67.850 123.517 C 68.069 123.736,68.034 128.344,67.809 128.753 C 67.705 128.944,67.563 129.708,67.494 130.450 C 67.425 131.192,67.291 131.800,67.196 131.800 C 67.102 131.800,66.964 132.206,66.889 132.702 C 66.815 133.199,66.674 133.654,66.577 133.714 C 66.480 133.774,66.400 133.998,66.400 134.212 C 66.400 134.425,66.300 134.600,66.177 134.600 C 66.052 134.600,65.999 134.776,66.058 135.000 C 66.115 135.220,66.081 135.400,65.981 135.400 C 65.882 135.400,65.800 135.540,65.800 135.712 C 65.800 135.883,65.710 135.968,65.600 135.900 C 65.488 135.831,65.400 135.983,65.400 136.244 C 65.400 136.501,65.220 136.865,65.000 137.054 C 64.780 137.242,64.600 137.532,64.600 137.698 C 64.600 137.864,64.520 138.000,64.422 138.000 C 64.324 138.000,64.188 138.219,64.121 138.487 C 64.054 138.754,63.842 139.024,63.650 139.086 C 63.457 139.147,63.120 139.468,62.900 139.798 C 62.680 140.129,62.389 140.399,62.254 140.399 C 62.118 140.400,61.952 140.622,61.884 140.893 C 61.816 141.165,61.701 141.379,61.630 141.370 C 61.153 141.307,60.913 141.415,61.169 141.577 C 61.368 141.703,61.302 141.781,60.919 141.877 C 60.634 141.949,60.400 142.096,60.400 142.204 C 60.400 142.312,60.285 142.400,60.144 142.400 C 60.004 142.400,59.735 142.580,59.546 142.800 C 59.358 143.020,59.074 143.200,58.915 143.200 C 58.757 143.200,58.572 143.373,58.505 143.584 C 58.424 143.841,58.122 144.012,57.592 144.101 C 57.156 144.175,56.800 144.309,56.800 144.400 C 56.800 144.491,56.417 144.628,55.950 144.705 C 55.483 144.782,55.003 144.923,54.884 145.019 C 54.614 145.236,53.923 145.366,52.938 145.385 C 52.484 145.394,52.226 145.481,52.300 145.600 C 52.368 145.710,52.283 145.800,52.112 145.800 C 51.940 145.800,51.800 145.707,51.800 145.593 C 51.800 145.457,51.679 145.451,51.446 145.576 C 51.012 145.808,49.200 145.802,49.200 145.568 C 49.200 145.476,48.818 145.399,48.350 145.399 C 47.883 145.398,47.270 145.277,46.988 145.130 C 46.707 144.984,46.090 144.802,45.618 144.726 C 45.146 144.651,44.628 144.456,44.466 144.294 C 44.304 144.133,44.002 144.000,43.795 144.000 C 43.588 144.000,43.198 143.797,42.928 143.550 C 42.144 142.830,41.896 142.657,41.435 142.511 C 41.196 142.435,41.000 142.289,41.000 142.187 C 41.000 142.084,40.865 142.000,40.700 142.000 C 40.535 142.000,40.400 141.925,40.400 141.833 C 40.400 141.606,38.606 139.800,38.380 139.800 C 38.281 139.800,38.200 139.662,38.200 139.494 C 38.200 139.325,38.073 139.139,37.918 139.079 C 37.763 139.020,37.581 138.753,37.514 138.486 C 37.447 138.218,37.304 138.000,37.196 138.000 C 37.088 138.000,37.000 137.879,37.000 137.731 C 37.000 137.583,36.781 137.207,36.513 136.895 C 36.245 136.583,35.970 136.108,35.903 135.840 C 35.835 135.571,35.650 135.221,35.490 135.062 C 35.331 134.902,35.200 134.598,35.200 134.386 C 35.200 134.174,35.087 133.999,34.950 133.997 C 34.783 133.995,34.800 133.929,35.000 133.800 C 35.196 133.673,35.214 133.605,35.052 133.603 C 34.916 133.601,34.747 133.240,34.677 132.800 C 34.606 132.360,34.470 132.000,34.374 132.000 C 34.278 132.000,34.200 131.820,34.200 131.600 C 34.200 131.380,34.119 131.200,34.019 131.200 C 33.919 131.200,33.886 130.840,33.945 130.400 C 34.026 129.802,33.983 129.599,33.776 129.597 C 33.545 129.594,33.544 129.566,33.771 129.422 C 33.961 129.302,33.976 129.209,33.821 129.113 C 33.550 128.946,33.512 123.374,33.780 123.090 C 34.002 122.855,34.166 121.198,33.954 121.329 C 33.869 121.381,33.800 121.328,33.800 121.212 C 33.800 121.095,33.890 121.000,34.000 121.000 C 34.110 121.000,34.200 120.820,34.200 120.600 C 34.200 120.380,34.278 120.200,34.374 120.200 C 34.470 120.200,34.606 119.840,34.677 119.400 C 34.747 118.960,34.874 118.600,34.959 118.600 C 35.043 118.600,35.132 118.372,35.155 118.092 C 35.198 117.570,35.983 115.952,36.250 115.833 C 36.333 115.797,36.400 115.639,36.400 115.483 C 36.400 115.328,36.488 115.200,36.596 115.200 C 36.704 115.200,36.849 114.975,36.918 114.700 C 36.987 114.425,37.118 114.200,37.208 114.200 C 37.299 114.200,37.433 114.010,37.507 113.779 C 37.580 113.547,38.261 112.750,39.020 112.008 C 39.779 111.265,40.400 110.549,40.400 110.417 C 40.400 110.285,40.474 110.222,40.564 110.278 C 40.655 110.334,40.879 110.204,41.062 109.990 C 41.246 109.775,41.532 109.600,41.698 109.600 C 41.864 109.600,42.000 109.512,42.000 109.404 C 42.000 109.296,42.225 109.151,42.500 109.082 C 42.775 109.013,43.000 108.876,43.000 108.778 C 43.000 108.680,43.135 108.600,43.300 108.600 C 43.465 108.600,43.600 108.517,43.600 108.416 C 43.600 108.315,43.871 108.172,44.202 108.100 C 44.533 108.027,44.757 107.893,44.701 107.801 C 44.644 107.710,44.972 107.572,45.429 107.495 C 45.886 107.418,46.558 107.230,46.923 107.077 C 47.288 106.925,47.950 106.800,48.394 106.800 C 48.837 106.800,49.200 106.710,49.200 106.600 C 49.200 106.364,49.470 106.337,49.683 106.550 " stroke="none" fill="#fcfcfc" fill-rule="evenodd"></path><path id="path1" d="M65.750 39.745 C 65.117 39.786,64.600 39.893,64.600 39.982 C 64.600 40.071,64.128 40.200,63.551 40.268 C 62.974 40.337,62.472 40.484,62.435 40.596 C 62.397 40.708,62.188 40.800,61.970 40.800 C 61.752 40.800,61.377 40.908,61.137 41.040 C 60.897 41.172,60.524 41.310,60.309 41.345 C 60.093 41.381,59.868 41.491,59.807 41.589 C 59.746 41.688,59.449 41.830,59.148 41.906 C 58.847 41.981,58.600 42.114,58.600 42.200 C 58.600 42.286,58.390 42.409,58.134 42.473 C 57.878 42.538,57.424 42.818,57.124 43.095 C 56.825 43.373,56.490 43.600,56.381 43.600 C 56.169 43.600,55.913 43.792,55.001 44.632 C 54.683 44.924,54.171 45.313,53.862 45.497 C 53.553 45.680,53.036 46.182,52.713 46.613 C 52.390 47.044,51.963 47.448,51.763 47.512 C 51.563 47.575,51.400 47.756,51.400 47.913 C 51.400 48.071,51.295 48.200,51.167 48.200 C 51.038 48.200,50.988 48.255,51.055 48.321 C 51.121 48.388,50.979 48.647,50.738 48.896 C 50.211 49.441,49.639 50.225,49.566 50.500 C 49.537 50.610,49.294 50.903,49.027 51.150 C 48.760 51.398,48.614 51.600,48.702 51.600 C 48.790 51.600,48.723 51.758,48.553 51.950 C 48.213 52.336,47.400 54.055,47.400 54.389 C 47.400 54.505,47.320 54.600,47.222 54.600 C 47.124 54.600,46.981 54.847,46.906 55.148 C 46.830 55.449,46.688 55.746,46.589 55.807 C 46.491 55.868,46.383 56.093,46.349 56.309 C 46.316 56.524,46.210 56.825,46.115 56.979 C 46.019 57.132,45.899 57.627,45.847 58.079 C 45.796 58.530,45.685 58.945,45.601 59.000 C 45.517 59.055,45.382 59.595,45.300 60.200 C 45.218 60.805,45.069 61.353,44.968 61.417 C 44.866 61.481,44.729 62.629,44.661 63.967 C 44.594 65.305,44.463 66.400,44.369 66.400 C 44.276 66.400,44.200 66.945,44.200 67.612 C 44.200 68.278,44.276 68.776,44.369 68.719 C 44.463 68.661,44.597 69.752,44.667 71.144 C 44.738 72.535,44.880 73.726,44.982 73.789 C 45.085 73.853,45.233 74.466,45.311 75.152 C 45.388 75.839,45.518 76.400,45.600 76.400 C 45.682 76.400,45.808 76.846,45.880 77.392 C 45.952 77.937,46.099 78.438,46.206 78.504 C 46.313 78.570,46.400 78.843,46.400 79.112 C 46.400 79.380,46.483 79.600,46.584 79.600 C 46.685 79.600,46.828 79.870,46.900 80.200 C 46.972 80.530,47.107 80.800,47.200 80.800 C 47.293 80.800,47.428 81.070,47.500 81.400 C 47.572 81.730,47.707 82.000,47.800 82.000 C 47.893 82.000,48.028 82.270,48.100 82.600 C 48.172 82.930,48.315 83.200,48.416 83.200 C 48.517 83.200,48.600 83.296,48.600 83.414 C 48.600 83.532,48.713 83.754,48.850 83.907 C 49.408 84.530,49.600 84.790,49.600 84.925 C 49.600 85.003,49.733 85.209,49.895 85.383 C 50.477 86.009,51.400 87.155,51.400 87.252 C 51.400 87.419,53.712 89.800,53.874 89.800 C 53.957 89.800,54.267 90.024,54.563 90.298 C 55.436 91.108,56.345 91.800,56.534 91.800 C 56.632 91.800,56.865 91.980,57.054 92.200 C 57.242 92.420,57.532 92.600,57.698 92.600 C 57.864 92.600,58.000 92.683,58.000 92.784 C 58.000 92.885,58.270 93.028,58.600 93.100 C 58.930 93.172,59.200 93.293,59.200 93.367 C 59.200 93.528,60.080 93.924,60.850 94.110 C 61.153 94.184,61.400 94.313,61.400 94.399 C 61.400 94.485,61.828 94.618,62.350 94.696 C 62.873 94.774,63.405 94.924,63.533 95.029 C 63.661 95.134,64.401 95.274,65.177 95.339 C 65.953 95.404,66.541 95.534,66.482 95.629 C 66.424 95.723,76.777 95.800,89.676 95.800 C 102.491 95.800,113.024 95.723,113.082 95.630 C 113.140 95.536,113.828 95.405,114.611 95.340 C 115.394 95.274,116.139 95.136,116.267 95.033 C 116.395 94.930,116.883 94.782,117.350 94.705 C 117.817 94.628,118.200 94.483,118.200 94.382 C 118.200 94.282,118.332 94.200,118.493 94.200 C 118.855 94.200,120.275 93.556,120.367 93.350 C 120.403 93.267,120.528 93.200,120.645 93.200 C 120.962 93.200,122.600 92.351,122.600 92.186 C 122.600 92.108,122.825 91.987,123.100 91.918 C 123.375 91.849,123.600 91.704,123.600 91.596 C 123.600 91.488,123.701 91.400,123.823 91.400 C 123.946 91.400,124.396 91.040,124.823 90.600 C 125.250 90.160,125.690 89.800,125.800 89.800 C 126.031 89.800,127.400 88.396,127.400 88.158 C 127.400 88.071,127.527 88.000,127.683 88.000 C 127.839 88.000,128.057 87.752,128.168 87.450 C 128.278 87.148,128.376 87.032,128.384 87.194 C 128.393 87.355,128.722 86.973,129.115 86.344 C 129.509 85.715,129.914 85.200,130.015 85.200 C 130.117 85.200,130.200 85.079,130.200 84.931 C 130.200 84.782,130.380 84.454,130.600 84.200 C 130.820 83.946,131.000 83.618,131.000 83.469 C 131.000 83.321,131.070 83.200,131.155 83.200 C 131.241 83.200,131.488 82.796,131.705 82.302 C 131.922 81.808,132.160 81.403,132.234 81.402 C 132.308 81.401,132.428 81.130,132.500 80.800 C 132.572 80.470,132.705 80.200,132.794 80.200 C 132.883 80.200,133.013 79.892,133.084 79.515 C 133.155 79.138,133.296 78.800,133.397 78.765 C 133.498 78.729,133.620 78.385,133.667 78.000 C 133.713 77.615,133.853 77.047,133.976 76.737 C 134.099 76.427,134.200 75.950,134.200 75.675 C 134.200 75.401,134.280 75.226,134.377 75.286 C 134.474 75.346,134.618 74.699,134.698 73.847 C 134.777 72.996,134.937 72.241,135.054 72.168 C 135.344 71.987,135.361 63.425,135.070 63.237 C 134.954 63.162,134.797 62.472,134.720 61.706 C 134.643 60.939,134.508 60.264,134.421 60.206 C 134.333 60.147,134.198 59.740,134.121 59.300 C 134.043 58.860,133.953 58.410,133.921 58.300 C 133.889 58.190,133.795 57.830,133.713 57.500 C 133.630 57.170,133.436 56.616,133.281 56.270 C 133.127 55.923,133.000 55.541,133.000 55.420 C 133.000 55.299,132.917 55.200,132.816 55.200 C 132.715 55.200,132.572 54.930,132.500 54.600 C 132.428 54.270,132.293 54.000,132.200 54.000 C 132.107 54.000,131.972 53.730,131.900 53.400 C 131.828 53.070,131.685 52.800,131.584 52.800 C 131.483 52.800,131.400 52.620,131.400 52.400 C 131.400 52.180,131.310 52.000,131.200 52.000 C 131.090 52.000,131.000 51.879,131.000 51.731 C 131.000 51.583,130.820 51.299,130.600 51.100 C 130.380 50.901,130.200 50.656,130.200 50.555 C 130.200 50.454,130.088 50.255,129.950 50.112 C 129.317 49.456,128.800 48.780,128.800 48.608 C 128.800 48.505,128.681 48.348,128.535 48.260 C 128.389 48.172,128.212 47.943,128.141 47.750 C 128.070 47.558,127.894 47.400,127.749 47.400 C 127.605 47.400,127.329 47.134,127.137 46.810 C 126.946 46.485,126.499 46.018,126.144 45.772 C 125.790 45.527,125.203 45.027,124.840 44.663 C 124.478 44.298,124.050 44.000,123.890 44.000 C 123.731 44.000,123.600 43.910,123.600 43.800 C 123.600 43.690,123.460 43.600,123.288 43.600 C 123.117 43.600,123.032 43.510,123.100 43.400 C 123.168 43.290,123.094 43.200,122.936 43.200 C 122.778 43.200,122.542 43.071,122.411 42.913 C 122.280 42.755,121.909 42.568,121.586 42.497 C 121.264 42.426,121.000 42.293,121.000 42.200 C 121.000 42.107,120.730 41.972,120.400 41.900 C 120.070 41.828,119.800 41.685,119.800 41.584 C 119.800 41.483,119.575 41.400,119.300 41.400 C 119.025 41.400,118.800 41.311,118.800 41.202 C 118.800 41.094,118.442 40.947,118.004 40.877 C 117.566 40.807,117.252 40.678,117.306 40.590 C 117.361 40.502,116.887 40.373,116.253 40.305 C 115.619 40.236,114.920 40.072,114.700 39.940 C 114.321 39.713,69.017 39.532,65.750 39.745 M113.567 48.401 C 113.603 48.510,113.896 48.600,114.217 48.600 C 114.538 48.600,114.800 48.678,114.800 48.774 C 114.800 48.870,115.160 49.006,115.600 49.077 C 116.040 49.147,116.400 49.282,116.400 49.377 C 116.400 49.471,116.750 49.605,117.178 49.673 C 117.606 49.742,118.008 49.933,118.072 50.099 C 118.135 50.264,118.361 50.400,118.572 50.400 C 118.784 50.400,119.009 50.535,119.072 50.700 C 119.136 50.865,119.305 51.000,119.450 51.000 C 119.594 51.000,119.844 51.186,120.006 51.413 C 120.168 51.639,120.615 52.020,121.000 52.258 C 121.615 52.639,122.024 53.022,122.797 53.942 C 122.909 54.074,123.000 54.264,123.000 54.364 C 123.000 54.463,123.225 54.713,123.500 54.919 C 123.775 55.126,124.000 55.411,124.000 55.554 C 124.000 55.696,124.135 55.864,124.300 55.928 C 124.465 55.991,124.600 56.216,124.600 56.428 C 124.600 56.639,124.736 56.865,124.901 56.928 C 125.067 56.992,125.258 57.394,125.327 57.822 C 125.395 58.250,125.522 58.600,125.610 58.600 C 125.697 58.600,125.828 58.870,125.900 59.200 C 125.972 59.530,126.115 59.800,126.216 59.800 C 126.317 59.800,126.400 60.025,126.400 60.300 C 126.400 60.575,126.478 60.800,126.574 60.800 C 126.670 60.800,126.810 61.180,126.884 61.644 C 126.958 62.108,127.127 62.555,127.259 62.637 C 127.595 62.844,127.604 72.350,127.270 72.557 C 127.143 72.636,126.975 73.127,126.897 73.650 C 126.819 74.172,126.675 74.600,126.577 74.600 C 126.480 74.600,126.400 74.780,126.400 75.000 C 126.400 75.220,126.310 75.400,126.200 75.400 C 126.090 75.400,125.997 75.558,125.993 75.750 C 125.989 75.942,125.813 76.460,125.600 76.900 C 125.387 77.340,125.211 77.813,125.207 77.950 C 125.203 78.088,125.112 78.200,125.004 78.200 C 124.896 78.200,124.751 78.425,124.682 78.700 C 124.613 78.975,124.482 79.200,124.392 79.200 C 124.301 79.200,124.164 79.399,124.087 79.642 C 124.009 79.886,123.733 80.252,123.473 80.457 C 123.213 80.662,123.000 80.920,123.000 81.030 C 123.000 81.282,121.298 83.000,121.049 83.000 C 120.948 83.000,120.626 83.270,120.332 83.600 C 120.037 83.930,119.663 84.200,119.498 84.200 C 119.334 84.200,119.200 84.292,119.200 84.405 C 119.200 84.518,118.998 84.697,118.750 84.804 C 118.234 85.028,117.547 85.443,117.400 85.621 C 117.345 85.688,116.963 85.804,116.550 85.880 C 116.138 85.956,115.800 86.104,115.800 86.209 C 115.800 86.314,115.575 86.400,115.300 86.400 C 115.025 86.400,114.800 86.485,114.800 86.588 C 114.800 86.691,114.170 86.838,113.400 86.914 C 112.630 86.990,112.000 87.130,112.000 87.226 C 112.000 87.322,111.370 87.400,110.600 87.400 C 109.830 87.400,109.200 87.322,109.200 87.226 C 109.200 87.130,108.480 86.989,107.600 86.912 C 106.720 86.835,106.000 86.689,106.000 86.586 C 106.000 86.484,105.820 86.400,105.600 86.400 C 105.380 86.400,105.200 86.311,105.200 86.202 C 105.200 86.094,104.840 85.947,104.400 85.877 C 103.960 85.806,103.600 85.680,103.600 85.596 C 103.600 85.512,103.375 85.387,103.100 85.318 C 102.825 85.249,102.600 85.104,102.600 84.996 C 102.600 84.888,102.462 84.800,102.294 84.800 C 102.125 84.800,101.936 84.665,101.872 84.500 C 101.809 84.335,101.600 84.200,101.409 84.200 C 101.217 84.200,100.853 83.930,100.600 83.600 C 100.347 83.270,100.057 83.000,99.955 83.000 C 99.853 83.000,99.499 82.730,99.169 82.400 C 98.839 82.070,98.486 81.800,98.385 81.800 C 98.283 81.800,98.200 81.640,98.200 81.444 C 98.200 81.249,98.020 80.935,97.800 80.746 C 97.580 80.558,97.400 80.263,97.400 80.090 C 97.400 79.918,97.316 79.828,97.214 79.891 C 97.112 79.954,96.971 79.825,96.901 79.603 C 96.831 79.381,96.689 79.200,96.587 79.200 C 96.484 79.200,96.400 79.065,96.400 78.900 C 96.400 78.735,96.317 78.600,96.216 78.600 C 96.115 78.600,95.972 78.330,95.900 78.000 C 95.828 77.670,95.689 77.400,95.593 77.400 C 95.497 77.400,95.359 77.085,95.287 76.700 C 95.215 76.315,95.080 76.000,94.987 76.000 C 94.894 76.000,94.759 75.685,94.687 75.300 C 94.615 74.915,94.482 74.600,94.392 74.600 C 94.302 74.600,94.167 74.105,94.091 73.500 C 94.016 72.895,93.874 72.400,93.777 72.400 C 93.680 72.400,93.600 71.955,93.600 71.412 C 93.600 70.868,93.510 70.368,93.400 70.300 C 93.148 70.144,93.131 65.200,93.382 65.200 C 93.482 65.200,93.607 64.683,93.660 64.050 C 93.761 62.828,94.191 60.967,94.410 60.800 C 94.483 60.745,94.604 60.363,94.680 59.950 C 94.756 59.538,94.897 59.200,94.993 59.200 C 95.089 59.200,95.228 58.930,95.300 58.600 C 95.372 58.270,95.507 58.000,95.600 58.000 C 95.693 58.000,95.828 57.730,95.900 57.400 C 95.972 57.070,96.115 56.800,96.216 56.800 C 96.317 56.800,96.400 56.661,96.400 56.490 C 96.400 56.320,96.609 55.983,96.865 55.740 C 97.121 55.498,97.388 55.142,97.459 54.950 C 97.529 54.758,97.674 54.600,97.780 54.600 C 97.886 54.600,98.036 54.403,98.112 54.163 C 98.259 53.699,99.531 52.400,99.838 52.400 C 100.061 52.400,101.000 51.407,101.000 51.171 C 101.000 51.077,101.183 51.000,101.406 51.000 C 101.630 51.000,101.861 50.873,101.921 50.718 C 101.980 50.563,102.258 50.379,102.539 50.308 C 102.819 50.238,103.179 50.050,103.338 49.890 C 103.498 49.731,103.847 49.600,104.114 49.600 C 104.381 49.600,104.600 49.514,104.600 49.409 C 104.600 49.304,104.915 49.159,105.300 49.087 C 105.685 49.015,106.000 48.875,106.000 48.778 C 106.000 48.680,106.315 48.600,106.700 48.600 C 107.085 48.600,107.400 48.515,107.400 48.411 C 107.400 47.996,113.428 47.986,113.567 48.401 M309.450 94.133 C 309.312 94.188,309.143 94.586,309.074 95.017 C 309.005 95.448,308.870 95.800,308.774 95.800 C 308.678 95.800,308.600 95.970,308.600 96.177 C 308.600 96.385,308.466 96.812,308.301 97.127 C 308.137 97.442,308.002 97.852,308.001 98.038 C 308.001 98.224,307.920 98.426,307.823 98.486 C 307.726 98.546,307.585 99.001,307.511 99.498 C 307.436 99.994,307.299 100.400,307.205 100.400 C 307.112 100.400,306.974 100.760,306.900 101.200 C 306.826 101.640,306.683 102.000,306.582 102.000 C 306.482 102.000,306.400 102.220,306.400 102.488 C 306.400 102.757,306.320 103.026,306.223 103.086 C 306.125 103.146,305.982 103.534,305.904 103.947 C 305.827 104.361,305.672 104.756,305.560 104.825 C 305.448 104.894,305.310 105.367,305.252 105.875 C 305.195 106.384,305.080 106.800,304.996 106.800 C 304.913 106.800,304.785 107.115,304.713 107.500 C 304.641 107.885,304.504 108.200,304.410 108.200 C 304.315 108.200,304.176 108.650,304.100 109.200 C 304.024 109.750,303.881 110.200,303.781 110.200 C 303.682 110.200,303.600 110.325,303.600 110.477 C 303.600 110.630,303.466 111.012,303.301 111.327 C 303.137 111.642,303.002 112.058,303.001 112.250 C 303.001 112.442,302.916 112.600,302.814 112.600 C 302.712 112.600,302.567 113.095,302.491 113.700 C 302.416 114.305,302.275 114.800,302.179 114.800 C 302.083 114.800,301.947 115.160,301.877 115.600 C 301.806 116.040,301.670 116.400,301.574 116.400 C 301.478 116.400,301.400 116.625,301.400 116.900 C 301.400 117.175,301.320 117.400,301.222 117.400 C 301.125 117.400,300.986 117.711,300.915 118.092 C 300.843 118.472,300.654 119.034,300.494 119.342 C 300.334 119.649,300.202 120.095,300.201 120.333 C 300.201 120.572,300.116 120.797,300.012 120.833 C 299.909 120.870,299.762 121.373,299.687 121.950 L 299.548 123.000 303.170 123.000 L 306.792 123.000 306.918 122.500 C 306.987 122.225,307.115 122.000,307.203 122.000 C 307.291 122.000,307.424 121.550,307.500 121.000 C 307.576 120.450,307.709 120.000,307.796 120.000 C 307.883 120.000,308.015 119.595,308.090 119.100 C 308.164 118.605,308.309 118.200,308.412 118.200 C 308.516 118.200,308.600 118.038,308.600 117.840 C 308.600 117.054,308.919 117.000,313.554 117.000 C 318.222 117.000,318.600 117.066,318.600 117.886 C 318.600 118.059,318.684 118.200,318.786 118.200 C 318.888 118.200,319.033 118.695,319.109 119.300 C 319.184 119.905,319.325 120.400,319.421 120.400 C 319.517 120.400,319.653 120.760,319.723 121.200 C 319.794 121.640,319.930 122.000,320.026 122.000 C 320.122 122.000,320.200 122.225,320.200 122.500 L 320.200 123.000 323.988 123.000 C 327.374 123.000,328.401 122.871,327.830 122.518 C 327.732 122.458,327.597 122.059,327.528 121.631 C 327.460 121.203,327.268 120.594,327.103 120.276 C 326.938 119.959,326.802 119.453,326.801 119.150 C 326.801 118.847,326.710 118.600,326.600 118.600 C 326.490 118.600,326.400 118.375,326.400 118.100 C 326.400 117.825,326.314 117.600,326.209 117.600 C 326.104 117.600,325.959 117.284,325.886 116.898 C 325.814 116.512,325.680 116.149,325.589 116.093 C 325.498 116.037,325.363 115.588,325.289 115.095 C 325.215 114.603,325.083 114.200,324.995 114.200 C 324.907 114.200,324.774 113.840,324.700 113.400 C 324.626 112.960,324.483 112.600,324.382 112.600 C 324.282 112.600,324.200 112.397,324.201 112.150 C 324.202 111.587,323.573 109.800,323.373 109.800 C 323.291 109.800,323.164 109.395,323.090 108.900 C 323.015 108.405,322.886 108.000,322.803 108.000 C 322.719 108.000,322.594 107.640,322.523 107.200 C 322.453 106.760,322.317 106.400,322.220 106.400 C 322.124 106.400,321.985 105.995,321.910 105.500 C 321.836 105.005,321.691 104.600,321.588 104.600 C 321.484 104.600,321.400 104.385,321.400 104.123 C 321.400 103.860,321.266 103.388,321.101 103.073 C 320.937 102.758,320.802 102.343,320.801 102.150 C 320.801 101.958,320.718 101.800,320.619 101.800 C 320.519 101.800,320.376 101.350,320.300 100.800 C 320.224 100.250,320.085 99.800,319.990 99.800 C 319.896 99.800,319.759 99.484,319.686 99.098 C 319.614 98.712,319.480 98.349,319.389 98.293 C 319.298 98.237,319.163 97.788,319.089 97.295 C 319.015 96.803,318.875 96.400,318.777 96.400 C 318.680 96.400,318.600 96.175,318.600 95.900 C 318.600 95.625,318.514 95.400,318.409 95.400 C 318.304 95.400,318.159 95.085,318.087 94.700 L 317.955 94.000 313.828 94.016 C 311.557 94.024,309.587 94.077,309.450 94.133 M331.650 94.120 C 331.453 94.209,331.400 97.305,331.400 108.621 L 331.400 123.009 335.150 122.954 L 338.900 122.900 338.954 118.250 L 339.007 113.600 342.504 113.600 C 344.427 113.600,346.000 113.521,346.000 113.425 C 346.000 113.329,346.469 113.206,347.042 113.151 C 347.614 113.096,348.116 112.952,348.156 112.832 C 348.196 112.711,348.531 112.556,348.901 112.487 C 349.270 112.417,349.621 112.235,349.680 112.080 C 349.739 111.926,349.876 111.800,349.985 111.800 C 350.262 111.800,352.600 109.497,352.600 109.224 C 352.600 109.101,352.680 109.000,352.778 109.000 C 352.875 109.000,353.015 108.685,353.087 108.300 C 353.159 107.915,353.304 107.600,353.409 107.600 C 353.514 107.600,353.600 107.438,353.600 107.240 C 353.600 107.042,353.713 106.768,353.850 106.630 C 354.579 105.902,354.201 99.625,353.391 99.000 C 353.320 98.945,353.201 98.653,353.127 98.351 C 352.976 97.733,351.125 95.800,350.685 95.800 C 350.528 95.800,350.400 95.720,350.400 95.622 C 350.400 95.524,350.153 95.381,349.852 95.306 C 349.551 95.230,349.251 95.082,349.186 94.977 C 349.121 94.872,348.715 94.730,348.284 94.662 C 347.853 94.594,347.438 94.442,347.361 94.325 C 347.214 94.100,332.129 93.903,331.650 94.120 M357.600 96.600 C 357.600 99.040,357.624 99.200,357.988 99.200 C 358.202 99.200,358.418 99.267,358.469 99.350 C 358.520 99.433,359.298 99.455,360.198 99.400 C 361.097 99.345,361.871 99.337,361.917 99.383 C 361.963 99.429,362.000 103.502,362.000 108.433 L 362.000 117.400 359.800 117.400 L 357.600 117.400 357.600 120.000 L 357.600 122.600 365.800 122.600 L 374.000 122.600 374.000 120.000 L 374.000 117.400 371.800 117.400 L 369.600 117.400 369.600 108.287 C 369.600 99.701,369.620 99.179,369.950 99.277 C 370.493 99.439,372.984 99.483,373.133 99.333 C 373.207 99.260,373.432 99.200,373.633 99.200 C 373.970 99.200,374.000 98.988,374.000 96.600 L 374.000 94.000 365.800 94.000 L 357.600 94.000 357.600 96.600 M342.927 100.099 C 343.242 100.263,343.748 100.398,344.050 100.399 C 344.353 100.399,344.600 100.490,344.600 100.600 C 344.600 100.710,344.715 100.800,344.856 100.800 C 345.181 100.800,345.760 101.472,346.030 102.165 C 346.711 103.910,345.651 107.000,344.371 107.000 C 344.167 107.000,344.000 107.090,344.000 107.200 C 344.000 107.322,343.067 107.400,341.600 107.400 L 339.200 107.400 339.200 103.600 L 339.200 99.800 340.777 99.800 C 341.787 99.800,342.560 99.907,342.927 100.099 M314.094 104.529 C 314.171 105.041,314.311 105.603,314.406 105.779 C 314.501 105.956,314.633 106.440,314.699 106.856 C 314.766 107.271,314.905 107.559,315.008 107.495 C 315.111 107.431,315.145 107.510,315.084 107.669 C 315.023 107.829,315.069 108.019,315.186 108.092 C 315.304 108.164,315.400 108.483,315.400 108.800 C 315.400 109.117,315.490 109.432,315.600 109.500 C 315.710 109.568,315.800 109.888,315.800 110.212 C 315.800 110.535,315.890 110.800,316.000 110.800 C 316.110 110.800,316.200 110.935,316.200 111.100 C 316.200 111.351,315.778 111.400,313.600 111.400 L 311.000 111.400 311.000 110.800 C 311.000 110.470,311.090 110.200,311.200 110.200 C 311.310 110.200,311.400 109.885,311.400 109.500 C 311.400 109.011,311.490 108.800,311.700 108.800 C 311.899 108.800,312.000 108.601,312.000 108.212 C 312.000 107.888,312.082 107.573,312.181 107.512 C 312.281 107.450,312.427 106.932,312.505 106.361 C 312.584 105.790,312.772 105.199,312.924 105.047 C 313.076 104.896,313.200 104.508,313.200 104.186 C 313.200 103.129,313.926 103.408,314.094 104.529 M49.200 145.592 C 49.200 145.698,49.470 145.765,49.800 145.742 C 50.580 145.687,50.581 145.400,49.800 145.400 C 49.470 145.400,49.200 145.486,49.200 145.592 " stroke="none" fill="#549bfb" fill-rule="evenodd"></path></g></svg>