<svg id="svg" version="1.1" xmlns="http://www.w3.org/2000/svg" xmlns:xlink="http://www.w3.org/1999/xlink" width="400" height="133.93017009847807" viewBox="0, 0, 400,133.93017009847807"><g id="svgg"><path id="path0" d="M29.442 9.471 C 29.291 9.639,29.167 9.838,29.167 9.914 C 29.167 9.989,29.317 9.878,29.500 9.667 C 29.683 9.455,29.833 9.256,29.833 9.224 C 29.833 9.100,29.706 9.180,29.442 9.471 M125.375 30.566 C 125.375 30.804,125.441 31.000,125.521 31.000 C 125.706 31.000,125.705 30.652,125.518 30.357 C 125.417 30.198,125.375 30.259,125.375 30.566 M20.833 30.823 C 20.833 31.104,20.862 31.333,20.897 31.333 C 21.039 31.333,21.112 30.486,20.978 30.403 C 20.898 30.354,20.833 30.543,20.833 30.823 M20.778 31.944 C 20.625 32.097,20.637 33.462,20.792 33.558 C 20.860 33.600,20.917 33.229,20.917 32.734 C 20.917 32.239,20.910 31.833,20.903 31.833 C 20.895 31.833,20.839 31.883,20.778 31.944 M20.833 34.649 C 20.833 34.944,20.904 35.143,20.990 35.090 C 21.076 35.036,21.116 34.834,21.078 34.641 C 20.968 34.066,20.833 34.071,20.833 34.649 M28.500 54.793 C 28.500 54.884,28.613 55.053,28.750 55.167 C 28.889 55.282,29.000 55.300,29.000 55.207 C 29.000 55.116,28.887 54.947,28.750 54.833 C 28.611 54.718,28.500 54.700,28.500 54.793 M29.167 55.615 C 29.167 55.707,29.317 55.917,29.500 56.083 C 29.683 56.249,29.833 56.347,29.833 56.301 C 29.833 56.255,29.683 56.045,29.500 55.833 C 29.317 55.622,29.167 55.524,29.167 55.615 M179.006 61.322 C 178.705 61.885,178.782 67.258,179.095 67.571 C 179.539 68.015,187.421 67.959,187.661 67.511 C 187.914 67.038,187.889 61.456,187.633 61.200 C 187.246 60.813,179.218 60.926,179.006 61.322 M238.867 61.200 C 238.551 61.516,238.579 95.553,238.896 95.816 C 239.057 95.949,240.265 95.993,242.938 95.962 L 246.750 95.917 246.837 87.417 C 246.932 78.040,246.903 78.303,247.889 77.992 C 248.271 77.872,248.862 77.637,249.202 77.470 C 250.250 76.955,252.598 77.049,253.273 77.632 C 254.208 78.438,254.500 79.175,254.500 80.722 C 254.500 81.480,254.574 82.174,254.665 82.265 C 254.766 82.366,254.846 85.013,254.873 89.173 L 254.917 95.917 258.917 95.917 L 262.917 95.917 262.960 86.176 C 262.988 79.795,262.945 76.378,262.835 76.268 C 262.742 76.176,262.667 75.857,262.667 75.560 C 262.667 75.263,262.592 74.973,262.500 74.917 C 262.408 74.860,262.333 74.627,262.333 74.399 C 262.333 74.171,262.146 73.797,261.917 73.568 C 261.688 73.339,261.500 73.053,261.500 72.933 C 261.500 72.683,259.773 71.000,259.516 71.000 C 259.423 71.000,259.212 70.859,259.048 70.687 C 258.544 70.157,252.234 69.699,251.775 70.159 C 251.679 70.255,251.393 70.333,251.139 70.333 C 250.630 70.333,249.500 70.816,249.500 71.033 C 249.500 71.109,249.104 71.352,248.620 71.574 C 248.136 71.795,247.599 72.132,247.427 72.322 C 247.256 72.511,247.052 72.667,246.974 72.667 C 246.897 72.667,246.833 70.132,246.833 67.033 C 246.833 62.874,246.781 61.348,246.633 61.200 C 246.350 60.916,239.150 60.916,238.867 61.200 M118.750 61.778 C 118.567 61.818,118.267 61.918,118.083 62.001 C 117.900 62.083,117.375 62.190,116.917 62.237 C 115.052 62.432,114.409 62.540,114.258 62.683 C 114.171 62.766,113.858 62.833,113.562 62.833 C 113.266 62.833,112.921 62.936,112.796 63.061 C 112.670 63.187,112.033 63.566,111.380 63.904 C 110.726 64.242,110.102 64.627,109.992 64.759 C 109.882 64.892,109.705 65.000,109.599 65.000 C 109.354 65.000,107.667 66.697,107.667 66.943 C 107.667 67.044,107.559 67.215,107.428 67.324 C 106.951 67.720,106.167 69.477,106.167 70.150 C 106.167 70.515,106.092 70.860,106.000 70.917 C 105.905 70.975,105.833 71.804,105.833 72.833 C 105.833 73.863,105.905 74.692,106.000 74.750 C 106.092 74.807,106.167 75.137,106.167 75.484 C 106.167 76.179,106.557 77.101,107.029 77.520 C 107.197 77.668,107.333 77.875,107.333 77.980 C 107.333 78.465,108.866 80.333,109.264 80.333 C 109.371 80.333,109.555 80.449,109.673 80.591 C 109.879 80.839,111.529 81.667,111.818 81.667 C 111.896 81.667,112.053 81.779,112.167 81.917 C 112.281 82.054,112.513 82.167,112.682 82.167 C 112.851 82.167,113.239 82.307,113.544 82.478 C 114.088 82.783,114.678 82.925,116.167 83.107 C 116.579 83.158,116.988 83.267,117.075 83.349 C 117.162 83.432,117.589 83.500,118.023 83.500 C 118.458 83.500,118.860 83.575,118.917 83.667 C 118.973 83.758,119.198 83.833,119.417 83.833 C 119.635 83.833,119.855 83.900,119.905 83.981 C 119.955 84.062,120.333 84.179,120.744 84.240 C 121.156 84.302,121.536 84.423,121.589 84.510 C 121.643 84.596,121.851 84.669,122.052 84.672 C 122.686 84.681,124.421 86.656,124.016 86.907 C 123.936 86.956,123.819 87.204,123.756 87.457 C 123.629 87.969,123.047 88.667,122.747 88.667 C 122.639 88.667,122.423 88.809,122.265 88.984 C 121.808 89.488,116.869 89.935,116.443 89.510 C 116.346 89.413,115.911 89.333,115.477 89.333 C 115.042 89.333,114.640 89.258,114.583 89.167 C 114.527 89.075,114.302 89.000,114.083 89.000 C 113.865 89.000,113.640 88.925,113.583 88.833 C 113.527 88.742,113.316 88.664,113.115 88.661 C 112.914 88.658,112.604 88.546,112.426 88.411 C 112.249 88.277,111.979 88.167,111.827 88.167 C 111.499 88.167,110.547 87.712,110.410 87.489 C 110.357 87.403,109.997 87.188,109.611 87.012 C 109.224 86.837,108.760 86.529,108.579 86.329 C 108.154 85.858,107.122 85.333,106.623 85.333 C 105.860 85.333,105.833 85.487,105.833 89.862 L 105.833 93.991 106.316 94.241 C 106.582 94.379,107.388 94.688,108.108 94.929 C 108.828 95.169,109.492 95.426,109.583 95.499 C 109.747 95.629,110.517 95.752,112.333 95.939 C 112.837 95.991,113.348 96.113,113.467 96.211 C 113.587 96.309,114.487 96.419,115.467 96.455 C 116.448 96.492,117.423 96.607,117.635 96.711 C 117.927 96.854,118.099 96.852,118.341 96.700 C 118.518 96.590,119.244 96.497,119.956 96.493 C 120.668 96.489,121.550 96.377,121.917 96.245 C 122.283 96.113,122.935 96.004,123.365 96.003 C 123.795 96.001,124.193 95.925,124.250 95.833 C 124.307 95.742,124.603 95.667,124.907 95.667 C 126.760 95.667,132.333 91.102,132.333 89.584 C 132.333 89.444,132.399 89.199,132.480 89.039 C 133.116 87.780,133.245 83.220,132.680 81.963 C 132.503 81.571,132.264 80.987,132.147 80.667 C 131.920 80.044,129.915 77.833,129.576 77.833 C 129.465 77.833,129.284 77.724,129.173 77.591 C 128.884 77.242,127.333 76.500,126.894 76.500 C 126.688 76.500,126.476 76.430,126.423 76.344 C 126.286 76.122,125.334 75.667,125.008 75.667 C 124.857 75.667,124.662 75.599,124.575 75.516 C 124.488 75.433,124.079 75.326,123.667 75.277 C 122.553 75.145,121.791 74.995,121.417 74.833 C 121.043 74.672,120.280 74.521,119.167 74.390 C 118.754 74.341,118.345 74.233,118.258 74.151 C 118.171 74.068,117.969 74.000,117.810 74.000 C 117.276 74.000,115.634 73.029,115.398 72.574 C 114.727 71.281,116.051 69.168,117.532 69.167 C 117.870 69.167,118.193 69.092,118.250 69.000 C 118.310 68.903,119.248 68.833,120.500 68.833 C 121.752 68.833,122.690 68.903,122.750 69.000 C 122.807 69.092,123.167 69.165,123.552 69.164 C 123.950 69.163,124.608 69.333,125.083 69.561 C 125.542 69.780,126.479 70.210,127.167 70.516 C 127.854 70.821,128.572 71.205,128.761 71.369 C 128.950 71.533,129.164 71.667,129.237 71.667 C 129.309 71.667,129.591 71.854,129.864 72.083 C 130.436 72.565,131.337 72.639,131.738 72.238 C 131.961 72.015,132.000 71.408,132.000 68.167 C 132.000 64.040,131.956 63.833,131.081 63.833 C 130.864 63.833,130.640 63.758,130.583 63.667 C 130.527 63.575,130.337 63.500,130.162 63.500 C 129.987 63.500,129.592 63.359,129.284 63.186 C 128.976 63.013,128.393 62.828,127.987 62.774 C 127.582 62.720,126.725 62.597,126.083 62.500 C 125.442 62.402,124.392 62.261,123.750 62.185 C 123.108 62.109,122.321 61.961,122.001 61.857 C 121.443 61.675,119.447 61.626,118.750 61.778 M194.533 63.700 C 194.392 63.842,194.333 64.836,194.333 67.110 L 194.333 70.320 192.958 70.368 L 191.583 70.417 191.583 73.500 L 191.583 76.583 192.958 76.632 L 194.333 76.680 194.333 82.830 C 194.333 86.751,194.394 89.018,194.500 89.083 C 194.592 89.140,194.667 89.702,194.667 90.333 C 194.667 90.964,194.742 91.527,194.833 91.583 C 194.925 91.640,195.005 91.851,195.012 92.052 C 195.019 92.252,195.150 92.611,195.304 92.848 C 196.226 94.272,196.522 94.667,196.670 94.667 C 196.762 94.667,197.072 94.892,197.360 95.167 C 197.647 95.442,198.055 95.667,198.265 95.667 C 198.475 95.667,198.693 95.742,198.750 95.833 C 198.807 95.925,199.096 96.000,199.393 96.000 C 199.690 96.000,200.007 96.074,200.097 96.164 C 200.268 96.335,202.554 96.694,203.417 96.685 C 204.771 96.670,207.554 96.346,207.716 96.184 C 207.817 96.083,208.256 96.000,208.691 96.000 C 209.917 96.000,210.000 95.787,210.000 92.663 C 210.000 90.866,209.938 90.005,209.800 89.867 C 209.568 89.635,208.132 89.598,207.706 89.813 C 206.104 90.622,204.623 90.464,203.662 89.381 C 202.824 88.436,202.833 88.517,202.833 82.422 L 202.833 76.673 206.375 76.628 L 209.917 76.583 209.963 73.849 C 210.026 70.097,210.289 70.333,206.054 70.333 L 202.833 70.333 202.833 67.117 C 202.833 64.837,202.775 63.842,202.633 63.700 C 202.349 63.416,194.817 63.416,194.533 63.700 M25.084 67.332 C 25.027 67.425,24.539 67.500,24.000 67.500 C 23.461 67.500,22.973 67.575,22.917 67.667 C 22.860 67.758,22.622 67.833,22.387 67.833 C 21.832 67.833,19.809 68.473,18.417 69.090 C 16.423 69.972,14.680 70.876,14.421 71.162 C 14.253 71.348,14.026 71.500,13.917 71.500 C 13.808 71.500,13.583 71.650,13.417 71.833 C 13.251 72.017,13.029 72.167,12.925 72.167 C 12.820 72.167,12.441 72.467,12.083 72.833 C 11.725 73.200,11.349 73.500,11.246 73.500 C 10.999 73.500,7.000 77.507,7.000 77.755 C 7.000 77.861,6.850 78.084,6.667 78.250 C 6.483 78.416,6.333 78.638,6.333 78.743 C 6.333 78.848,6.071 79.189,5.750 79.500 C 5.429 79.811,5.167 80.149,5.167 80.252 C 5.167 80.354,4.942 80.653,4.667 80.917 C 4.392 81.180,4.167 81.533,4.167 81.700 C 4.167 81.868,4.101 82.135,4.020 82.294 C 3.868 82.593,3.718 82.889,2.431 85.418 C 2.010 86.244,1.667 87.083,1.667 87.283 C 1.667 87.483,1.592 87.693,1.500 87.750 C 1.408 87.807,1.333 88.174,1.333 88.565 C 1.333 88.957,1.280 89.331,1.215 89.397 C 0.995 89.616,0.500 91.079,0.500 91.508 C 0.500 91.742,0.406 92.027,0.292 92.142 C -0.011 92.444,-0.011 106.889,0.292 107.192 C 0.406 107.306,0.500 107.591,0.500 107.825 C 0.500 108.254,0.995 109.717,1.215 109.937 C 1.280 110.002,1.333 110.376,1.333 110.768 C 1.333 111.160,1.408 111.527,1.500 111.583 C 1.592 111.640,1.667 111.861,1.667 112.074 C 1.667 112.287,2.017 113.127,2.444 113.939 C 3.883 116.672,4.156 117.249,4.161 117.563 C 4.164 117.735,4.410 118.167,4.708 118.521 C 5.006 118.876,5.494 119.457,5.792 119.812 C 6.090 120.167,6.333 120.530,6.333 120.619 C 6.333 120.709,6.483 120.917,6.667 121.083 C 6.850 121.249,7.000 121.471,7.000 121.576 C 7.000 121.915,12.589 127.167,12.949 127.167 C 13.040 127.167,13.251 127.317,13.417 127.500 C 13.583 127.683,13.808 127.833,13.917 127.833 C 14.026 127.833,14.254 127.987,14.424 128.175 C 14.594 128.363,15.299 128.784,15.992 129.111 C 16.684 129.438,17.545 129.846,17.906 130.019 C 18.267 130.192,18.684 130.333,18.831 130.333 C 18.979 130.333,19.171 130.403,19.258 130.489 C 19.494 130.721,21.912 131.500,22.395 131.500 C 22.625 131.500,22.860 131.575,22.917 131.667 C 22.973 131.758,23.450 131.833,23.977 131.833 C 24.503 131.833,25.009 131.909,25.101 132.001 C 25.340 132.240,78.728 132.114,80.083 131.871 C 82.561 131.427,83.557 131.147,84.722 130.568 C 84.981 130.439,85.307 130.333,85.446 130.333 C 85.847 130.333,89.412 128.540,89.748 128.169 C 89.915 127.984,90.112 127.833,90.185 127.833 C 90.390 127.833,91.524 127.059,92.083 126.536 C 92.358 126.280,92.846 125.893,93.167 125.678 C 93.793 125.256,96.833 122.223,96.833 122.019 C 96.833 121.952,96.974 121.745,97.147 121.560 C 97.319 121.375,97.647 120.930,97.875 120.570 C 98.103 120.211,98.450 119.774,98.645 119.599 C 98.840 119.425,99.000 119.190,99.000 119.078 C 99.000 118.966,99.113 118.780,99.252 118.665 C 99.634 118.348,102.501 112.476,102.506 112.000 C 102.509 111.771,102.621 111.438,102.755 111.260 C 102.890 111.082,103.000 110.693,103.000 110.395 C 103.000 110.097,103.075 109.807,103.167 109.750 C 103.258 109.693,103.333 109.468,103.333 109.250 C 103.333 109.032,103.408 108.807,103.500 108.750 C 103.592 108.693,103.667 108.356,103.667 108.000 C 103.667 107.644,103.742 107.307,103.833 107.250 C 103.925 107.193,104.000 106.743,104.000 106.250 C 104.000 105.757,104.075 105.307,104.167 105.250 C 104.258 105.193,104.333 104.631,104.333 104.000 C 104.333 103.369,104.408 102.807,104.500 102.750 C 104.601 102.688,104.667 101.474,104.667 99.667 C 104.667 97.860,104.601 96.646,104.500 96.583 C 104.408 96.527,104.333 95.975,104.333 95.357 C 104.333 94.739,104.265 94.162,104.181 94.075 C 104.098 93.988,103.989 93.504,103.939 93.000 C 103.786 91.456,103.638 90.669,103.482 90.572 C 103.400 90.522,103.333 90.302,103.333 90.083 C 103.333 89.865,103.258 89.640,103.167 89.583 C 103.075 89.527,103.000 89.237,103.000 88.939 C 103.000 88.641,102.890 88.251,102.755 88.074 C 102.621 87.896,102.508 87.556,102.505 87.319 C 102.499 86.834,99.642 80.992,99.252 80.668 C 99.113 80.553,99.000 80.367,99.000 80.255 C 99.000 80.143,98.840 79.909,98.645 79.734 C 98.450 79.560,98.103 79.123,97.875 78.763 C 97.647 78.404,97.319 77.958,97.147 77.773 C 96.974 77.588,96.833 77.358,96.833 77.260 C 96.832 77.018,93.518 73.764,93.000 73.496 C 92.771 73.378,92.368 73.031,92.104 72.724 C 91.840 72.417,91.540 72.167,91.437 72.166 C 91.334 72.166,90.837 71.868,90.333 71.503 C 89.363 70.800,85.502 68.833,85.094 68.833 C 84.961 68.833,84.807 68.758,84.750 68.667 C 84.693 68.575,84.468 68.500,84.250 68.500 C 84.032 68.500,83.807 68.425,83.750 68.333 C 83.693 68.242,83.479 68.167,83.273 68.167 C 83.068 68.167,82.829 68.099,82.742 68.017 C 82.655 67.935,82.283 67.824,81.917 67.772 C 81.550 67.719,80.762 67.588,80.167 67.480 C 78.741 67.221,25.241 67.078,25.084 67.332 M279.242 69.484 C 279.155 69.567,278.746 69.677,278.333 69.729 C 276.690 69.935,276.161 70.042,276.072 70.184 C 276.022 70.266,275.733 70.333,275.431 70.333 C 275.108 70.333,274.650 70.505,274.316 70.750 C 274.005 70.978,273.370 71.352,272.906 71.581 C 272.083 71.986,270.403 73.582,269.745 74.583 C 269.209 75.399,268.500 76.887,268.500 77.194 C 268.500 77.352,268.434 77.521,268.353 77.571 C 268.121 77.714,267.667 79.254,267.667 79.896 C 267.667 80.218,267.592 80.527,267.500 80.583 C 267.291 80.713,267.274 85.610,267.482 85.739 C 267.564 85.790,267.674 86.113,267.726 86.457 C 267.971 88.080,268.051 88.434,268.227 88.667 C 268.618 89.183,268.833 89.674,268.833 90.050 C 268.833 90.263,269.058 90.653,269.333 90.917 C 269.608 91.180,269.833 91.478,269.833 91.578 C 269.833 91.812,271.868 93.833,272.104 93.833 C 272.202 93.833,272.413 93.978,272.573 94.156 C 272.983 94.608,275.272 95.667,275.841 95.667 C 276.101 95.667,276.360 95.742,276.417 95.833 C 276.473 95.925,276.875 96.000,277.310 96.000 C 277.744 96.000,278.194 96.094,278.308 96.208 C 278.598 96.498,285.940 96.505,286.516 96.216 C 286.737 96.106,287.292 95.979,287.750 95.934 C 289.195 95.791,289.885 95.632,290.456 95.311 C 290.761 95.140,291.139 95.000,291.297 94.999 C 291.454 94.999,291.827 94.850,292.125 94.668 L 292.667 94.338 292.667 91.163 C 292.667 87.364,292.296 86.424,291.180 87.396 C 290.375 88.097,286.764 89.667,285.956 89.667 C 285.716 89.667,285.473 89.742,285.417 89.833 C 285.356 89.931,284.390 90.000,283.083 90.000 C 281.776 90.000,280.810 89.931,280.750 89.833 C 280.693 89.742,280.436 89.667,280.177 89.667 C 279.600 89.667,278.632 89.276,278.341 88.926 C 278.223 88.783,278.036 88.667,277.925 88.667 C 277.669 88.667,277.136 88.059,276.830 87.417 C 276.698 87.142,276.420 86.637,276.212 86.295 C 276.004 85.953,275.833 85.597,275.833 85.503 C 275.833 85.390,278.669 85.333,284.337 85.333 L 292.842 85.333 293.004 84.906 C 293.279 84.184,293.212 79.290,292.922 78.907 C 292.787 78.729,292.675 78.232,292.672 77.802 C 292.669 77.371,292.592 76.973,292.500 76.917 C 292.408 76.860,292.333 76.687,292.333 76.531 C 292.333 76.095,291.183 73.804,290.712 73.302 C 290.481 73.056,290.207 72.687,290.104 72.482 C 290.001 72.278,289.654 71.964,289.333 71.786 C 289.012 71.608,288.712 71.406,288.667 71.336 C 288.516 71.109,286.852 70.333,286.515 70.333 C 286.334 70.333,286.140 70.258,286.083 70.167 C 286.027 70.075,285.727 70.000,285.417 70.000 C 285.107 70.000,284.807 69.925,284.750 69.833 C 284.693 69.742,284.281 69.667,283.833 69.667 C 283.386 69.667,282.973 69.592,282.917 69.500 C 282.788 69.292,279.459 69.277,279.242 69.484 M224.598 69.792 C 224.529 69.860,223.860 69.970,223.112 70.034 C 221.207 70.199,220.346 70.344,220.239 70.518 C 220.188 70.600,220.004 70.667,219.829 70.667 C 219.530 70.667,218.102 71.370,217.758 71.687 C 217.671 71.768,217.479 71.833,217.331 71.833 C 217.183 71.833,216.847 72.058,216.583 72.333 C 216.320 72.608,216.014 72.833,215.903 72.833 C 215.716 72.833,215.461 73.108,214.317 74.541 C 214.078 74.839,213.644 75.571,213.351 76.167 C 213.058 76.762,212.677 77.475,212.504 77.750 C 212.321 78.043,212.186 78.574,212.179 79.032 C 212.172 79.462,212.092 79.860,212.000 79.917 C 211.898 79.980,211.833 81.276,211.833 83.250 C 211.833 85.224,211.898 86.520,212.000 86.583 C 212.092 86.640,212.165 86.963,212.164 87.302 C 212.162 87.869,212.915 89.675,213.208 89.806 C 213.277 89.836,213.333 89.956,213.333 90.072 C 213.333 90.428,213.803 91.247,214.246 91.663 C 214.477 91.880,214.667 92.143,214.667 92.246 C 214.667 92.478,215.701 93.500,215.935 93.500 C 216.028 93.500,216.321 93.726,216.585 94.002 C 217.204 94.647,219.264 95.667,219.950 95.667 C 220.242 95.667,220.527 95.742,220.583 95.833 C 220.640 95.925,220.949 96.000,221.270 96.000 C 221.591 96.000,222.221 96.120,222.669 96.267 C 223.697 96.603,229.178 96.556,229.525 96.208 C 229.640 96.094,230.089 96.000,230.523 96.000 C 230.958 96.000,231.360 95.925,231.417 95.833 C 231.473 95.742,231.663 95.667,231.838 95.667 C 232.013 95.667,232.424 95.517,232.750 95.333 C 233.076 95.150,233.478 95.000,233.643 95.000 C 234.530 95.000,235.239 89.184,234.566 87.430 C 234.319 86.788,232.650 87.085,231.833 87.917 C 231.428 88.329,231.012 88.667,230.908 88.667 C 230.804 88.667,230.590 88.809,230.432 88.983 C 230.154 89.291,229.735 89.424,228.457 89.610 C 228.113 89.661,227.790 89.769,227.739 89.851 C 227.619 90.046,225.248 90.044,224.873 89.850 C 224.714 89.767,224.264 89.604,223.873 89.489 C 223.482 89.373,223.072 89.170,222.963 89.039 C 222.853 88.907,222.595 88.735,222.389 88.656 C 222.181 88.577,221.867 88.190,221.682 87.784 C 221.499 87.383,221.234 86.958,221.092 86.840 C 220.946 86.719,220.833 86.363,220.832 86.021 C 220.832 85.689,220.719 85.202,220.582 84.939 C 220.424 84.635,220.333 83.991,220.333 83.167 C 220.333 82.342,220.424 81.698,220.582 81.394 C 220.719 81.131,220.832 80.793,220.832 80.642 C 220.837 79.382,222.681 76.972,223.823 76.735 C 224.058 76.686,224.380 76.576,224.539 76.490 C 224.927 76.280,227.953 76.289,228.083 76.500 C 228.140 76.592,228.444 76.667,228.760 76.667 C 229.107 76.667,229.462 76.795,229.660 76.993 C 229.839 77.173,230.308 77.481,230.701 77.677 C 231.095 77.874,231.687 78.294,232.016 78.610 C 232.580 79.151,232.675 79.182,233.600 79.134 L 234.583 79.083 234.628 75.600 C 234.679 71.695,234.682 71.707,233.497 71.352 C 233.132 71.243,232.833 71.090,232.833 71.012 C 232.833 70.806,231.282 70.333,230.604 70.333 C 230.282 70.333,229.973 70.258,229.917 70.167 C 229.860 70.075,229.298 70.000,228.667 70.000 C 228.036 70.000,227.473 69.925,227.417 69.833 C 227.298 69.641,224.785 69.604,224.598 69.792 M179.326 70.769 C 178.973 71.697,179.202 95.245,179.567 95.649 C 179.948 96.070,186.895 96.205,187.300 95.800 C 187.565 95.535,187.591 71.149,187.327 70.656 C 187.165 70.351,186.941 70.333,183.323 70.333 L 179.492 70.333 179.326 70.769 M298.019 70.560 C 297.882 70.725,297.843 74.208,297.874 83.352 L 297.917 95.917 301.875 95.961 C 304.052 95.986,305.850 95.986,305.871 95.961 C 305.892 95.937,305.948 92.210,305.996 87.680 L 306.083 79.444 306.583 79.151 C 306.858 78.990,307.350 78.852,307.675 78.846 C 308.000 78.839,308.346 78.754,308.442 78.658 C 308.634 78.466,313.109 78.538,314.219 78.751 C 314.751 78.852,314.920 78.810,315.260 78.490 L 315.667 78.109 315.667 74.421 C 315.667 71.775,315.610 70.677,315.467 70.533 C 315.218 70.285,311.735 70.255,311.583 70.500 C 311.527 70.592,311.259 70.667,310.989 70.667 C 310.478 70.667,307.989 71.862,307.651 72.268 C 307.546 72.396,307.378 72.500,307.279 72.500 C 307.180 72.500,306.852 72.740,306.550 73.033 L 306.000 73.565 306.000 72.149 C 306.000 71.270,305.924 70.658,305.800 70.533 C 305.494 70.227,298.275 70.252,298.019 70.560 M135.033 70.867 C 134.791 71.109,134.767 72.106,135.000 72.250 C 135.092 72.307,135.167 72.607,135.167 72.917 C 135.167 73.227,135.242 73.527,135.333 73.583 C 135.425 73.640,135.500 73.864,135.500 74.081 C 135.500 74.298,135.612 74.589,135.750 74.726 C 135.887 74.864,136.000 75.165,136.000 75.395 C 136.000 75.625,136.075 75.860,136.167 75.917 C 136.258 75.973,136.333 76.198,136.333 76.417 C 136.333 76.635,136.400 76.855,136.482 76.906 C 136.564 76.956,136.673 77.280,136.723 77.624 C 136.922 78.984,137.036 79.443,137.333 80.083 C 137.504 80.450,137.681 80.975,137.728 81.250 C 137.931 82.446,138.140 83.207,138.313 83.380 C 138.416 83.483,138.500 83.735,138.500 83.940 C 138.500 84.146,138.575 84.360,138.667 84.417 C 138.758 84.473,138.833 84.736,138.833 85.000 C 138.833 85.264,138.908 85.527,139.000 85.583 C 139.092 85.640,139.167 85.940,139.167 86.250 C 139.167 86.560,139.242 86.860,139.333 86.917 C 139.425 86.973,139.500 87.198,139.500 87.417 C 139.500 87.635,139.575 87.860,139.667 87.917 C 139.758 87.973,139.833 88.311,139.833 88.667 C 139.833 89.023,139.908 89.360,140.000 89.417 C 140.092 89.473,140.167 89.666,140.167 89.845 C 140.167 90.172,140.206 90.277,140.722 91.305 C 140.875 91.611,141.000 92.112,141.000 92.420 C 141.000 92.728,141.075 93.027,141.167 93.083 C 141.258 93.140,141.333 93.383,141.333 93.623 C 141.333 93.863,141.539 94.496,141.791 95.030 L 142.249 96.000 146.441 96.000 L 150.633 96.000 150.950 95.375 C 151.125 95.031,151.365 94.412,151.483 94.000 C 151.602 93.587,151.767 93.120,151.850 92.961 C 151.932 92.801,152.000 92.450,152.000 92.179 C 152.000 91.908,152.067 91.645,152.149 91.594 C 152.231 91.544,152.341 91.220,152.393 90.876 C 152.637 89.260,152.738 88.885,153.106 88.226 C 153.322 87.837,153.500 87.294,153.500 87.019 C 153.500 86.745,153.575 86.473,153.667 86.417 C 153.758 86.360,153.833 86.060,153.833 85.750 C 153.833 85.440,153.908 85.140,154.000 85.083 C 154.092 85.027,154.167 84.757,154.167 84.484 C 154.167 84.210,154.317 83.693,154.500 83.333 C 154.683 82.974,154.836 82.471,154.839 82.215 C 154.842 81.959,154.939 81.624,155.056 81.471 C 155.345 81.091,155.667 81.583,155.667 82.405 C 155.667 82.721,155.742 83.027,155.833 83.083 C 155.925 83.140,156.000 83.405,156.000 83.671 C 156.000 83.938,156.150 84.424,156.333 84.750 C 156.517 85.076,156.667 85.505,156.667 85.702 C 156.667 85.899,156.738 86.290,156.824 86.572 C 156.911 86.853,157.105 87.514,157.256 88.041 C 157.407 88.568,157.599 89.041,157.682 89.093 C 157.765 89.144,157.833 89.402,157.833 89.667 C 157.833 89.931,157.908 90.193,158.000 90.250 C 158.092 90.307,158.167 90.607,158.167 90.917 C 158.167 91.227,158.242 91.527,158.333 91.583 C 158.425 91.640,158.500 91.883,158.500 92.123 C 158.500 92.569,158.758 93.521,159.020 94.039 C 159.101 94.199,159.172 94.461,159.179 94.623 C 159.186 94.784,159.323 95.142,159.484 95.417 L 159.777 95.917 164.000 95.917 L 168.223 95.917 168.516 95.417 C 168.677 95.142,168.814 94.713,168.821 94.463 C 168.828 94.214,168.983 93.743,169.167 93.417 C 169.350 93.090,169.500 92.567,169.500 92.255 C 169.500 91.942,169.575 91.640,169.667 91.583 C 169.758 91.527,169.833 91.268,169.833 91.009 C 169.833 90.750,169.945 90.323,170.082 90.061 C 170.219 89.798,170.332 89.457,170.332 89.302 C 170.333 89.146,170.408 88.973,170.500 88.917 C 170.592 88.860,170.667 88.635,170.667 88.417 C 170.667 88.198,170.742 87.973,170.833 87.917 C 170.925 87.860,171.000 87.560,171.000 87.250 C 171.000 86.940,171.075 86.640,171.167 86.583 C 171.258 86.527,171.333 86.189,171.333 85.833 C 171.333 85.477,171.408 85.140,171.500 85.083 C 171.592 85.027,171.667 84.802,171.667 84.583 C 171.667 84.365,171.742 84.140,171.833 84.083 C 171.925 84.027,172.000 83.802,172.000 83.583 C 172.000 83.365,172.075 83.140,172.167 83.083 C 172.258 83.027,172.333 82.775,172.333 82.523 C 172.333 82.272,172.417 81.983,172.520 81.880 C 172.623 81.777,172.769 81.406,172.846 81.055 C 172.922 80.704,173.051 80.117,173.131 79.750 C 173.211 79.383,173.402 78.843,173.555 78.550 C 173.708 78.257,173.833 77.792,173.833 77.518 C 173.833 77.244,173.908 76.973,174.000 76.917 C 174.092 76.860,174.167 76.617,174.167 76.377 C 174.167 75.931,174.425 74.979,174.687 74.461 C 174.768 74.301,174.833 74.025,174.833 73.845 C 174.833 73.666,174.901 73.478,174.985 73.426 C 175.327 73.215,175.722 71.505,175.528 71.078 L 175.340 70.667 171.462 70.669 C 169.329 70.671,167.508 70.727,167.417 70.794 C 167.083 71.040,166.667 72.041,166.667 72.599 C 166.667 72.914,166.601 73.301,166.520 73.461 C 166.263 73.970,166.000 74.927,166.000 75.353 C 166.000 75.581,165.932 75.838,165.849 75.925 C 165.708 76.074,165.659 76.345,165.404 78.417 C 165.347 78.875,165.233 79.321,165.151 79.408 C 165.068 79.495,164.998 79.720,164.995 79.908 C 164.992 80.096,164.879 80.396,164.745 80.574 C 164.610 80.751,164.500 81.130,164.500 81.415 C 164.500 81.700,164.432 82.005,164.349 82.092 C 164.208 82.241,164.159 82.512,163.904 84.583 C 163.774 85.633,163.572 85.861,163.327 85.234 C 163.223 84.968,163.032 84.538,162.903 84.278 C 162.773 84.019,162.667 83.554,162.667 83.246 C 162.667 82.938,162.592 82.640,162.500 82.583 C 162.408 82.527,162.333 82.227,162.333 81.917 C 162.333 81.607,162.258 81.307,162.167 81.250 C 162.075 81.193,162.000 80.968,162.000 80.750 C 162.000 80.532,161.925 80.307,161.833 80.250 C 161.742 80.193,161.667 79.856,161.667 79.500 C 161.667 79.144,161.592 78.807,161.500 78.750 C 161.408 78.693,161.333 78.393,161.333 78.083 C 161.333 77.773,161.258 77.473,161.167 77.417 C 161.075 77.360,161.000 77.112,161.000 76.865 C 161.000 76.417,160.510 74.955,160.285 74.730 C 160.220 74.665,160.167 74.441,160.167 74.232 C 160.167 74.024,160.092 73.807,160.000 73.750 C 159.908 73.693,159.833 73.356,159.833 73.000 C 159.833 72.644,159.758 72.307,159.667 72.250 C 159.575 72.193,159.500 71.904,159.500 71.607 C 159.500 70.686,159.419 70.667,155.579 70.667 C 151.211 70.667,151.494 70.497,151.059 73.376 C 151.007 73.720,150.898 74.044,150.816 74.094 C 150.734 74.145,150.667 74.329,150.667 74.504 C 150.667 74.679,150.479 75.157,150.250 75.568 C 150.021 75.978,149.833 76.539,149.833 76.814 C 149.833 77.089,149.758 77.360,149.667 77.417 C 149.575 77.473,149.500 77.741,149.500 78.012 C 149.500 78.283,149.432 78.635,149.350 78.794 C 149.267 78.953,149.110 79.421,149.000 79.833 C 148.890 80.246,148.733 80.714,148.650 80.873 C 148.568 81.032,148.500 81.384,148.500 81.655 C 148.500 81.925,148.425 82.193,148.333 82.250 C 148.242 82.307,148.167 82.644,148.167 83.000 C 148.167 83.356,148.099 83.689,148.015 83.740 C 147.932 83.792,147.733 84.265,147.573 84.792 C 147.220 85.950,147.000 86.248,147.000 85.567 C 147.000 85.292,146.932 84.995,146.848 84.908 C 146.764 84.821,146.660 84.337,146.615 83.833 C 146.508 82.619,146.251 81.517,146.020 81.287 C 145.917 81.184,145.833 80.894,145.833 80.643 C 145.833 80.392,145.758 80.140,145.667 80.083 C 145.575 80.027,145.500 79.727,145.500 79.417 C 145.500 79.107,145.425 78.807,145.333 78.750 C 145.242 78.693,145.167 78.281,145.167 77.833 C 145.167 77.386,145.092 76.973,145.000 76.917 C 144.908 76.860,144.833 76.485,144.833 76.083 C 144.833 75.682,144.767 75.312,144.686 75.262 C 144.605 75.212,144.497 74.964,144.446 74.710 C 144.395 74.457,144.270 73.912,144.167 73.500 C 144.065 73.087,143.915 72.345,143.835 71.850 C 143.754 71.355,143.590 70.887,143.469 70.811 C 143.105 70.580,135.268 70.632,135.033 70.867 M281.083 75.833 C 281.140 75.925,281.426 76.003,281.718 76.006 C 282.751 76.017,283.833 77.055,283.833 78.032 C 283.833 78.345,283.923 78.690,284.033 78.800 C 284.189 78.956,283.393 79.000,280.450 79.000 L 276.667 79.000 276.667 78.609 C 276.667 77.431,278.168 76.000,279.405 76.000 C 279.721 76.000,280.027 75.925,280.083 75.833 C 280.140 75.742,280.365 75.667,280.583 75.667 C 280.802 75.667,281.027 75.742,281.083 75.833 M27.241 77.683 C 27.027 77.767,27.002 77.813,27.167 77.819 C 27.604 77.836,28.166 77.634,28.078 77.492 C 28.032 77.416,28.201 77.413,28.455 77.485 C 28.709 77.557,29.010 77.583,29.125 77.544 C 29.240 77.504,29.333 77.553,29.333 77.653 C 29.333 77.893,29.782 77.884,29.933 77.641 C 30.011 77.514,29.978 77.494,29.833 77.583 C 29.680 77.678,29.655 77.654,29.750 77.501 C 29.857 77.328,29.925 77.338,30.082 77.553 C 30.218 77.739,30.572 77.833,31.217 77.854 C 31.794 77.873,32.115 77.949,32.052 78.051 C 31.995 78.143,32.032 78.167,32.134 78.104 C 32.235 78.041,32.594 78.104,32.930 78.245 C 33.266 78.385,33.645 78.500,33.772 78.500 C 33.899 78.500,34.335 78.656,34.741 78.846 C 35.146 79.037,35.592 79.210,35.731 79.230 C 35.870 79.250,36.124 79.394,36.294 79.548 C 36.541 79.771,36.647 79.786,36.812 79.623 C 36.977 79.459,36.999 79.471,36.918 79.685 C 36.846 79.874,36.963 80.013,37.319 80.161 C 37.596 80.275,37.913 80.478,38.023 80.611 C 38.133 80.744,38.454 80.952,38.737 81.073 C 39.019 81.195,39.400 81.438,39.583 81.614 C 39.767 81.790,40.059 81.988,40.232 82.054 C 40.406 82.120,40.498 82.224,40.438 82.284 C 40.270 82.452,41.189 83.333,41.531 83.333 C 41.697 83.333,41.833 83.450,41.833 83.593 C 41.833 83.736,41.908 83.807,42.000 83.750 C 42.092 83.693,42.167 83.786,42.167 83.956 C 42.167 84.126,42.467 84.559,42.833 84.917 C 43.200 85.275,43.500 85.667,43.500 85.789 C 43.500 85.911,43.612 86.054,43.750 86.106 C 43.887 86.159,44.000 86.335,44.000 86.498 C 44.000 86.661,44.218 87.009,44.485 87.272 C 44.752 87.535,44.996 87.900,45.027 88.083 C 45.058 88.267,45.212 88.559,45.369 88.734 C 45.526 88.908,45.615 89.115,45.566 89.194 C 45.518 89.273,45.595 89.573,45.739 89.861 C 45.882 90.149,46.000 90.486,46.000 90.609 C 46.000 90.732,46.079 90.833,46.177 90.833 C 46.274 90.833,46.307 90.908,46.250 91.000 C 46.193 91.092,46.224 91.167,46.318 91.167 C 46.412 91.167,46.450 91.269,46.402 91.395 C 46.354 91.521,46.431 91.741,46.574 91.883 C 46.717 92.026,46.833 92.331,46.833 92.562 C 46.833 92.792,46.908 93.027,47.000 93.083 C 47.092 93.140,47.167 93.476,47.167 93.829 C 47.167 94.183,47.239 94.497,47.328 94.528 C 47.416 94.558,47.507 95.047,47.529 95.613 C 47.551 96.180,47.629 96.607,47.701 96.562 C 47.869 96.458,47.876 102.401,47.708 102.571 C 47.573 102.707,47.562 102.803,47.525 104.135 C 47.510 104.677,47.435 104.980,47.333 104.917 C 47.233 104.855,47.167 105.070,47.167 105.457 C 47.167 105.811,47.094 106.172,47.006 106.261 C 46.917 106.350,46.826 106.659,46.804 106.950 C 46.782 107.240,46.713 107.445,46.650 107.406 C 46.496 107.311,46.308 107.823,46.426 108.015 C 46.478 108.098,46.436 108.167,46.333 108.167 C 46.231 108.167,46.193 108.242,46.250 108.333 C 46.307 108.425,46.274 108.500,46.177 108.500 C 46.079 108.500,46.000 108.646,46.000 108.823 C 46.000 109.001,45.934 109.188,45.854 109.237 C 45.773 109.287,45.622 109.666,45.518 110.081 C 45.414 110.495,45.250 110.833,45.154 110.833 C 45.059 110.833,45.023 110.902,45.075 110.987 C 45.127 111.071,45.060 111.249,44.926 111.383 C 44.792 111.517,44.729 111.673,44.786 111.730 C 44.842 111.787,44.810 111.833,44.714 111.833 C 44.617 111.833,44.409 112.030,44.252 112.271 C 44.059 112.565,44.039 112.667,44.191 112.583 C 44.315 112.514,44.210 112.658,43.958 112.902 C 43.706 113.147,43.500 113.450,43.500 113.575 C 43.500 113.701,43.275 113.993,43.000 114.224 C 42.725 114.456,42.500 114.762,42.500 114.906 C 42.500 115.049,42.406 115.148,42.292 115.125 C 42.171 115.101,42.106 115.214,42.136 115.392 C 42.165 115.561,42.117 115.656,42.029 115.601 C 41.940 115.547,41.821 115.625,41.764 115.775 C 41.706 115.925,41.610 115.999,41.551 115.940 C 41.391 115.780,40.824 116.350,40.946 116.548 C 41.004 116.642,40.973 116.670,40.878 116.611 C 40.783 116.552,40.602 116.630,40.477 116.784 C 40.284 117.022,40.285 117.043,40.484 116.923 C 40.643 116.827,40.680 116.844,40.599 116.974 C 40.534 117.080,40.403 117.167,40.308 117.167 C 40.214 117.167,39.830 117.429,39.455 117.750 C 39.080 118.071,38.686 118.333,38.579 118.333 C 38.472 118.333,38.249 118.483,38.083 118.667 C 37.917 118.850,37.678 119.000,37.552 119.000 C 37.426 119.000,37.280 119.112,37.227 119.249 C 37.175 119.386,37.065 119.457,36.983 119.406 C 36.900 119.355,36.833 119.393,36.833 119.490 C 36.833 119.587,36.777 119.651,36.708 119.632 C 36.640 119.613,36.011 119.872,35.310 120.208 C 34.610 120.545,33.840 120.856,33.598 120.900 C 33.357 120.943,32.935 121.091,32.660 121.228 C 32.386 121.365,32.204 121.407,32.257 121.322 C 32.310 121.237,32.274 121.167,32.177 121.167 C 32.079 121.167,32.000 121.229,32.000 121.306 C 32.000 121.382,31.906 121.448,31.792 121.453 C 30.301 121.518,30.000 121.579,29.995 121.823 C 29.991 122.040,29.961 122.035,29.820 121.792 C 29.635 121.474,29.167 121.392,29.167 121.677 C 29.167 121.774,29.098 121.811,29.014 121.759 C 28.930 121.707,28.678 121.734,28.454 121.819 C 28.144 121.937,27.979 121.907,27.767 121.696 C 27.593 121.522,27.443 121.480,27.369 121.583 C 27.222 121.789,26.774 121.897,26.898 121.697 C 26.947 121.617,26.596 121.533,26.119 121.510 C 25.641 121.487,25.156 121.462,25.042 121.456 C 24.927 121.450,24.833 121.390,24.833 121.324 C 24.833 121.258,24.627 121.163,24.375 121.112 C 22.905 120.817,22.325 120.623,21.284 120.082 C 20.956 119.912,20.848 119.901,20.921 120.045 C 20.978 120.158,20.915 120.116,20.781 119.952 C 20.647 119.788,20.471 119.676,20.391 119.702 C 20.310 119.728,20.059 119.578,19.833 119.369 C 19.608 119.159,19.258 118.946,19.057 118.895 C 18.856 118.845,18.650 118.698,18.601 118.568 C 18.551 118.439,18.411 118.333,18.289 118.333 C 18.167 118.333,17.773 118.032,17.413 117.663 C 17.053 117.295,16.663 117.030,16.546 117.075 C 16.429 117.119,16.333 117.070,16.333 116.964 C 16.333 116.693,15.653 116.000,15.388 116.000 C 15.266 116.000,15.165 115.944,15.163 115.875 C 15.161 115.806,15.004 115.563,14.815 115.333 C 14.626 115.104,14.527 115.022,14.595 115.151 C 14.678 115.309,14.653 115.345,14.517 115.260 C 14.406 115.192,14.348 115.049,14.387 114.943 C 14.426 114.837,14.288 114.563,14.081 114.333 C 13.599 113.802,12.167 111.651,12.167 111.459 C 12.167 111.379,12.100 111.355,12.018 111.406 C 11.936 111.456,11.819 111.298,11.757 111.054 C 11.696 110.809,11.502 110.426,11.325 110.202 C 11.149 109.978,11.042 109.733,11.088 109.659 C 11.134 109.584,11.096 109.476,11.003 109.418 C 10.910 109.361,10.833 109.131,10.833 108.907 C 10.833 108.683,10.758 108.500,10.667 108.500 C 10.575 108.500,10.500 108.279,10.500 108.010 C 10.500 107.740,10.425 107.473,10.333 107.417 C 10.242 107.360,10.167 107.098,10.167 106.833 C 10.167 106.569,10.092 106.307,10.000 106.250 C 9.908 106.193,9.833 105.959,9.833 105.729 C 9.833 105.499,9.751 105.157,9.650 104.969 C 9.549 104.780,9.467 104.354,9.468 104.021 C 9.468 103.689,9.390 103.321,9.293 103.203 C 9.076 102.939,9.100 96.365,9.319 96.099 C 9.402 95.999,9.478 95.654,9.487 95.333 C 9.516 94.315,9.568 94.022,9.702 94.105 C 9.774 94.150,9.833 94.018,9.833 93.813 C 9.833 93.421,10.106 92.452,10.354 91.961 C 10.434 91.801,10.500 91.525,10.500 91.345 C 10.500 91.166,10.575 90.973,10.667 90.917 C 10.758 90.860,10.833 90.543,10.833 90.212 C 10.833 89.882,10.882 89.660,10.942 89.720 C 11.002 89.780,11.236 89.442,11.462 88.969 C 11.689 88.496,11.943 88.029,12.028 87.930 C 12.256 87.664,13.333 85.984,13.333 85.893 C 13.333 85.850,13.558 85.576,13.833 85.283 C 14.107 84.990,14.332 84.662,14.333 84.556 C 14.333 84.449,14.390 84.336,14.458 84.306 C 14.527 84.275,14.771 84.023,15.000 83.745 C 15.229 83.467,15.492 83.224,15.583 83.203 C 15.675 83.183,15.753 83.073,15.758 82.958 C 15.762 82.844,15.862 82.771,15.980 82.796 C 16.099 82.822,16.235 82.692,16.283 82.507 C 16.332 82.322,16.445 82.216,16.535 82.272 C 16.625 82.327,17.066 82.010,17.516 81.568 C 17.966 81.125,18.333 80.819,18.333 80.888 C 18.333 80.957,18.534 80.827,18.780 80.599 C 19.026 80.371,19.289 80.223,19.365 80.269 C 19.440 80.316,19.547 80.238,19.602 80.095 C 19.657 79.952,19.760 79.871,19.831 79.915 C 19.902 79.959,20.138 79.857,20.355 79.687 C 20.572 79.518,20.919 79.326,21.125 79.262 C 21.331 79.197,21.500 79.070,21.500 78.979 C 21.500 78.888,21.576 78.861,21.669 78.918 C 21.762 78.975,22.073 78.905,22.361 78.761 C 22.649 78.618,23.042 78.497,23.234 78.494 C 23.426 78.491,23.767 78.386,23.992 78.262 C 24.216 78.138,24.510 78.078,24.644 78.130 C 24.778 78.181,24.845 78.154,24.793 78.070 C 24.741 77.986,25.048 77.890,25.474 77.858 C 26.851 77.754,26.917 77.739,26.881 77.552 C 26.859 77.441,26.988 77.405,27.205 77.462 C 27.551 77.552,27.552 77.561,27.241 77.683 " stroke="none" fill="#fcfcfc" fill-rule="evenodd"></path><path id="path1" d="M47.333 0.333 C 47.104 0.407,46.528 0.474,46.054 0.483 C 45.579 0.493,45.091 0.594,44.970 0.708 C 44.849 0.823,44.453 0.939,44.090 0.967 C 43.726 0.995,43.318 1.108,43.183 1.217 C 42.985 1.377,42.963 1.372,43.071 1.192 C 43.179 1.013,43.140 1.003,42.879 1.142 C 42.699 1.239,42.371 1.351,42.151 1.392 C 41.930 1.433,41.364 1.620,40.893 1.807 C 40.422 1.994,39.991 2.102,39.935 2.046 C 39.879 1.990,39.833 2.032,39.833 2.139 C 39.833 2.246,39.720 2.333,39.581 2.333 C 39.326 2.333,39.159 2.401,38.250 2.871 C 37.975 3.014,37.300 3.359,36.750 3.638 C 36.200 3.918,35.600 4.283,35.417 4.450 C 35.233 4.616,34.877 4.844,34.625 4.956 C 34.373 5.068,34.167 5.236,34.167 5.330 C 34.167 5.423,34.079 5.500,33.972 5.500 C 33.775 5.500,33.676 5.576,32.696 6.486 C 32.391 6.769,32.072 7.000,31.987 7.000 C 31.903 7.000,31.833 7.117,31.833 7.260 C 31.833 7.403,31.764 7.477,31.680 7.425 C 31.528 7.331,30.063 8.767,29.761 9.306 C 29.559 9.665,29.293 9.930,29.083 9.980 C 28.992 10.002,28.927 10.127,28.940 10.258 C 28.952 10.389,28.896 10.455,28.815 10.405 C 28.733 10.355,28.667 10.435,28.667 10.583 C 28.667 10.732,28.592 10.807,28.500 10.750 C 28.408 10.693,28.333 10.730,28.333 10.833 C 28.333 10.935,28.104 11.258,27.824 11.551 C 27.544 11.844,27.198 12.301,27.056 12.568 C 26.914 12.834,26.649 13.209,26.467 13.401 C 26.284 13.593,25.837 14.350,25.473 15.082 C 25.109 15.815,24.710 16.528,24.585 16.666 C 24.461 16.804,24.335 17.029,24.305 17.167 C 24.275 17.304,24.189 17.462,24.114 17.517 C 24.039 17.572,23.960 17.722,23.939 17.850 C 23.918 17.978,23.808 18.252,23.694 18.458 C 23.581 18.665,23.533 18.833,23.587 18.833 C 23.641 18.833,23.575 19.040,23.439 19.292 C 23.149 19.831,22.941 20.350,22.922 20.583 C 22.914 20.675,22.846 20.849,22.771 20.969 C 22.695 21.090,22.678 21.233,22.732 21.287 C 22.786 21.342,22.766 21.468,22.687 21.568 C 22.522 21.779,22.041 23.222,21.932 23.833 C 21.891 24.063,21.843 24.269,21.825 24.292 C 21.752 24.384,21.707 24.696,21.688 25.260 C 21.676 25.586,21.604 25.814,21.528 25.767 C 21.451 25.720,21.383 25.772,21.376 25.882 C 21.370 25.993,21.345 26.440,21.322 26.875 C 21.298 27.310,21.233 27.667,21.176 27.667 C 21.119 27.667,21.051 28.208,21.024 28.870 C 20.997 29.531,20.942 30.126,20.901 30.191 C 20.861 30.257,20.894 30.351,20.975 30.401 C 21.149 30.509,21.025 31.298,20.813 31.429 C 20.733 31.479,20.667 31.632,20.667 31.770 C 20.667 31.907,20.723 31.985,20.792 31.942 C 20.860 31.900,20.917 32.263,20.917 32.750 C 20.917 33.237,20.860 33.600,20.792 33.558 C 20.591 33.434,20.647 33.813,20.889 34.214 C 21.089 34.547,21.114 34.738,21.007 35.125 C 20.970 35.259,21.013 36.845,21.070 37.455 C 21.089 37.659,21.156 37.878,21.219 37.941 C 21.282 38.004,21.333 38.376,21.333 38.768 C 21.333 39.160,21.397 39.520,21.474 39.568 C 21.552 39.616,21.626 39.864,21.639 40.119 C 21.665 40.619,21.728 40.938,21.879 41.333 C 21.931 41.471,22.021 41.865,22.078 42.208 C 22.135 42.552,22.258 42.833,22.351 42.833 C 22.444 42.833,22.477 42.902,22.425 42.986 C 22.373 43.070,22.419 43.351,22.526 43.611 C 22.633 43.871,22.706 44.147,22.688 44.226 C 22.670 44.304,22.732 44.461,22.826 44.575 C 22.920 44.688,22.953 44.824,22.900 44.878 C 22.847 44.931,22.994 45.355,23.228 45.821 C 23.462 46.286,23.616 46.667,23.571 46.667 C 23.525 46.667,23.581 46.835,23.694 47.042 C 23.808 47.248,23.918 47.522,23.939 47.650 C 23.960 47.778,24.077 47.946,24.197 48.022 C 24.318 48.099,24.359 48.163,24.290 48.164 C 24.220 48.166,24.365 48.485,24.613 48.875 C 24.861 49.265,25.278 50.025,25.541 50.564 C 25.941 51.384,26.636 52.445,27.304 53.255 C 27.381 53.350,27.683 53.755,27.973 54.155 C 28.263 54.556,28.500 54.825,28.500 54.755 C 28.500 54.684,28.612 54.719,28.750 54.833 C 28.887 54.947,29.000 55.186,29.000 55.364 C 29.000 55.541,29.061 55.648,29.136 55.602 C 29.211 55.556,29.380 55.683,29.511 55.884 C 29.823 56.362,31.882 58.495,32.034 58.498 C 32.099 58.499,32.351 58.679,32.595 58.898 C 33.367 59.591,33.664 59.833,33.742 59.833 C 33.784 59.833,34.006 60.021,34.235 60.250 C 34.464 60.479,34.767 60.667,34.909 60.667 C 35.051 60.667,35.167 60.725,35.167 60.797 C 35.167 60.957,36.201 61.591,36.375 61.538 C 36.444 61.517,36.500 61.566,36.500 61.646 C 36.500 61.727,36.744 61.889,37.042 62.007 C 37.340 62.125,37.722 62.340,37.892 62.486 C 38.063 62.631,38.213 62.726,38.226 62.697 C 38.239 62.667,38.438 62.715,38.667 62.802 C 38.896 62.889,39.158 62.973,39.250 62.988 C 39.342 63.004,39.567 63.114,39.750 63.233 C 40.062 63.435,41.547 63.974,41.917 64.020 C 42.008 64.031,42.271 64.113,42.500 64.203 C 42.883 64.354,43.170 64.416,44.083 64.546 C 44.267 64.572,44.510 64.651,44.625 64.723 C 44.739 64.794,45.202 64.878,45.655 64.909 C 46.107 64.941,46.569 65.023,46.681 65.092 C 46.803 65.167,46.842 65.149,46.779 65.046 C 46.718 64.949,46.964 64.975,47.348 65.107 C 48.294 65.433,99.031 65.369,99.358 65.042 C 99.620 64.780,99.893 64.768,99.734 65.026 C 99.653 65.157,99.689 65.172,99.849 65.073 C 99.978 64.992,100.252 64.949,100.459 64.975 C 100.665 65.002,101.060 64.911,101.337 64.773 C 101.613 64.636,101.789 64.604,101.727 64.704 C 101.653 64.824,101.694 64.836,101.849 64.739 C 102.102 64.581,102.328 64.530,103.042 64.469 C 103.294 64.447,103.500 64.386,103.500 64.333 C 103.500 64.248,103.805 64.183,104.458 64.129 C 104.573 64.119,104.667 64.049,104.667 63.972 C 104.667 63.896,104.858 63.833,105.091 63.833 C 105.325 63.833,105.831 63.678,106.216 63.488 C 106.602 63.298,107.061 63.113,107.238 63.075 C 107.414 63.038,107.610 62.925,107.673 62.823 C 107.736 62.721,107.835 62.645,107.894 62.654 C 108.102 62.686,109.127 62.198,109.241 62.014 C 109.305 61.912,109.426 61.871,109.512 61.924 C 109.597 61.977,109.667 61.946,109.667 61.856 C 109.667 61.766,109.929 61.606,110.250 61.500 C 110.571 61.394,110.833 61.247,110.833 61.173 C 110.833 61.099,111.077 60.922,111.375 60.780 C 111.673 60.638,112.082 60.367,112.285 60.178 C 112.487 59.988,112.706 59.833,112.771 59.833 C 112.892 59.833,113.180 59.589,113.997 58.792 C 114.256 58.540,114.532 58.333,114.612 58.333 C 114.898 58.333,117.321 55.723,118.480 54.167 C 120.454 51.517,120.604 51.292,121.228 50.034 C 121.560 49.365,122.063 48.403,122.345 47.895 C 122.933 46.840,123.597 45.147,123.713 44.411 C 123.816 43.757,124.319 42.058,124.607 41.391 C 124.731 41.103,124.833 40.638,124.833 40.360 C 124.833 40.081,124.893 39.816,124.967 39.771 C 125.040 39.725,125.118 39.402,125.140 39.052 C 125.192 38.214,125.238 37.951,125.366 37.746 C 125.425 37.652,125.460 37.034,125.445 36.371 C 125.429 35.708,125.482 35.166,125.562 35.167 C 125.642 35.167,125.609 35.048,125.489 34.904 C 125.361 34.749,125.335 34.595,125.427 34.529 C 125.843 34.230,125.843 31.270,125.427 30.971 C 125.336 30.905,125.371 30.737,125.511 30.564 C 125.642 30.402,125.675 30.314,125.583 30.369 C 125.477 30.432,125.428 30.028,125.449 29.256 C 125.482 27.987,125.361 27.185,125.181 27.477 C 125.123 27.571,125.090 27.245,125.109 26.752 C 125.131 26.185,125.064 25.789,124.928 25.676 C 124.810 25.578,124.748 25.319,124.789 25.100 C 124.831 24.881,124.754 24.450,124.618 24.142 C 124.416 23.689,124.017 22.381,123.900 21.792 C 123.886 21.723,123.859 21.648,123.840 21.625 C 123.821 21.602,123.771 21.369,123.728 21.107 C 123.608 20.370,122.910 18.614,122.347 17.635 C 122.068 17.148,121.501 16.062,121.087 15.221 C 120.673 14.380,120.143 13.541,119.909 13.357 C 119.675 13.173,119.485 12.980,119.487 12.929 C 119.494 12.775,119.281 12.255,119.175 12.167 C 119.074 12.083,118.066 10.791,117.751 10.344 C 117.484 9.964,114.608 7.126,114.024 6.667 C 113.733 6.438,113.367 6.119,113.210 5.958 C 113.054 5.798,112.843 5.667,112.742 5.667 C 112.641 5.667,112.382 5.479,112.167 5.250 C 111.951 5.021,111.676 4.833,111.554 4.833 C 111.433 4.833,111.333 4.765,111.333 4.682 C 111.333 4.598,110.977 4.358,110.542 4.149 C 110.106 3.939,109.651 3.670,109.530 3.550 C 109.409 3.431,109.227 3.333,109.126 3.333 C 109.025 3.333,108.825 3.235,108.680 3.115 C 108.535 2.994,108.079 2.760,107.667 2.595 C 107.254 2.429,106.767 2.228,106.583 2.148 C 105.794 1.803,104.856 1.533,104.765 1.624 C 104.711 1.678,104.667 1.622,104.667 1.500 C 104.667 1.378,104.621 1.323,104.566 1.378 C 104.511 1.434,104.267 1.401,104.025 1.306 C 103.585 1.134,103.003 1.012,102.292 0.944 C 102.086 0.924,101.743 0.811,101.530 0.692 C 101.318 0.573,100.827 0.496,100.440 0.519 C 100.053 0.543,99.627 0.492,99.493 0.406 C 99.192 0.213,47.932 0.141,47.333 0.333 M98.412 10.659 C 98.471 10.755,98.841 10.833,99.234 10.833 C 99.627 10.833,100.391 10.989,100.932 11.179 C 101.474 11.368,102.104 11.568,102.333 11.622 C 102.563 11.676,102.996 11.858,103.297 12.027 C 103.597 12.195,103.950 12.333,104.080 12.333 C 104.391 12.333,105.857 13.148,106.406 13.626 C 106.643 13.832,106.925 14.020,107.032 14.042 C 107.138 14.065,107.565 14.397,107.979 14.781 C 108.394 15.165,108.785 15.446,108.849 15.407 C 108.996 15.316,110.636 17.009,111.362 18.000 C 111.896 18.729,112.132 19.112,112.610 20.024 C 112.736 20.267,112.951 20.557,113.087 20.670 C 113.222 20.782,113.333 20.968,113.333 21.083 C 113.333 21.198,113.443 21.384,113.578 21.496 C 113.713 21.607,113.813 21.748,113.801 21.808 C 113.771 21.957,114.104 22.787,114.502 23.557 C 114.684 23.910,114.833 24.333,114.833 24.497 C 114.833 24.661,114.947 25.010,115.085 25.273 C 115.223 25.535,115.383 26.033,115.440 26.379 C 115.497 26.724,115.609 27.048,115.689 27.097 C 115.768 27.146,115.833 27.504,115.833 27.893 C 115.833 28.282,115.913 28.679,116.010 28.777 C 116.124 28.891,116.187 30.298,116.187 32.750 C 116.187 35.202,116.124 36.609,116.010 36.723 C 115.913 36.820,115.833 37.218,115.833 37.607 C 115.833 37.996,115.768 38.354,115.689 38.403 C 115.609 38.452,115.497 38.776,115.440 39.121 C 115.383 39.467,115.223 39.965,115.085 40.227 C 114.947 40.490,114.833 40.839,114.833 41.003 C 114.833 41.167,114.684 41.590,114.502 41.943 C 114.104 42.713,113.771 43.543,113.801 43.692 C 113.813 43.752,113.713 43.893,113.578 44.004 C 113.443 44.116,113.333 44.299,113.333 44.411 C 113.333 44.523,113.183 44.751,113.000 44.917 C 112.817 45.083,112.667 45.308,112.667 45.417 C 112.667 45.526,112.517 45.751,112.333 45.917 C 112.150 46.083,112.000 46.357,112.000 46.526 C 112.000 46.695,111.940 46.833,111.867 46.833 C 111.793 46.833,111.528 47.158,111.277 47.555 C 111.026 47.952,110.524 48.558,110.161 48.902 C 109.797 49.246,109.500 49.589,109.500 49.664 C 109.500 49.739,109.294 49.877,109.042 49.970 C 108.790 50.062,108.288 50.407,107.928 50.736 C 107.568 51.064,107.214 51.333,107.142 51.333 C 107.070 51.333,106.765 51.540,106.464 51.792 C 105.421 52.663,104.850 52.935,102.083 53.876 C 101.533 54.063,100.847 54.318,100.558 54.442 C 100.269 54.565,99.692 54.667,99.276 54.667 C 98.860 54.667,98.471 54.745,98.412 54.841 C 98.281 55.053,95.333 55.024,95.333 54.811 C 95.333 54.732,94.977 54.666,94.542 54.666 C 94.106 54.665,93.535 54.553,93.273 54.416 C 93.010 54.279,92.621 54.167,92.407 54.167 C 92.194 54.167,91.973 54.092,91.917 54.000 C 91.860 53.908,91.593 53.833,91.323 53.833 C 91.054 53.833,90.833 53.777,90.833 53.707 C 90.833 53.564,90.128 53.249,89.488 53.105 C 89.252 53.052,88.780 52.819,88.439 52.588 C 88.098 52.356,87.718 52.167,87.595 52.167 C 87.472 52.167,87.249 51.979,87.099 51.750 C 86.949 51.521,86.730 51.333,86.613 51.333 C 86.497 51.333,86.108 51.033,85.750 50.667 C 85.392 50.300,85.013 50.000,84.907 50.000 C 84.687 50.000,83.342 48.576,82.536 47.488 C 82.235 47.082,81.767 46.450,81.496 46.083 C 81.226 45.717,80.938 45.337,80.857 45.239 C 80.776 45.141,80.610 44.784,80.488 44.447 C 80.366 44.109,80.218 43.833,80.160 43.833 C 80.101 43.833,79.958 43.515,79.843 43.125 C 79.728 42.735,79.534 42.304,79.412 42.167 C 79.290 42.029,79.176 41.842,79.157 41.750 C 79.097 41.448,78.976 41.089,78.789 40.667 C 78.376 39.728,78.172 39.059,78.169 38.639 C 78.168 38.394,78.100 38.169,78.018 38.139 C 77.783 38.051,77.617 35.823,77.617 32.750 C 77.617 29.677,77.783 27.449,78.018 27.361 C 78.100 27.331,78.167 27.054,78.167 26.746 C 78.167 26.438,78.242 26.140,78.333 26.083 C 78.425 26.027,78.500 25.841,78.500 25.670 C 78.500 25.500,78.603 25.148,78.728 24.889 C 79.184 23.944,79.637 22.900,79.910 22.167 C 80.063 21.754,80.371 21.137,80.594 20.795 C 80.817 20.453,81.000 20.126,81.000 20.067 C 81.000 20.009,81.206 19.712,81.458 19.408 C 81.710 19.105,82.179 18.500,82.500 18.065 C 83.309 16.967,84.678 15.501,84.899 15.495 C 85.000 15.492,85.381 15.192,85.746 14.828 C 86.110 14.464,86.469 14.167,86.544 14.167 C 86.620 14.167,86.883 13.979,87.131 13.750 C 87.378 13.521,87.671 13.333,87.782 13.333 C 87.893 13.333,88.043 13.240,88.117 13.125 C 88.287 12.859,89.417 12.333,89.819 12.333 C 89.988 12.333,90.219 12.222,90.332 12.085 C 90.445 11.949,90.599 11.875,90.674 11.921 C 90.749 11.968,90.857 11.929,90.915 11.836 C 90.973 11.743,91.188 11.667,91.393 11.667 C 91.599 11.667,91.842 11.591,91.934 11.499 C 92.159 11.275,93.788 10.859,94.644 10.809 C 95.023 10.786,95.333 10.718,95.333 10.656 C 95.333 10.465,98.294 10.468,98.412 10.659 M324.728 62.875 C 324.332 63.323,324.000 64.063,324.000 64.494 C 324.000 64.666,323.892 65.019,323.759 65.278 C 323.441 65.902,322.592 68.223,322.337 69.167 C 322.225 69.579,322.066 70.047,321.984 70.206 C 321.901 70.365,321.833 70.569,321.833 70.659 C 321.833 70.750,321.658 71.219,321.445 71.703 C 321.231 72.187,320.959 72.921,320.841 73.333 C 320.724 73.746,320.411 74.646,320.146 75.333 C 319.881 76.021,319.665 76.748,319.666 76.948 C 319.666 77.149,319.592 77.360,319.500 77.417 C 319.408 77.473,319.333 77.666,319.333 77.845 C 319.333 78.025,319.265 78.301,319.181 78.461 C 318.766 79.248,318.167 80.704,318.167 80.923 C 318.167 81.060,318.099 81.301,318.016 81.461 C 317.934 81.620,317.770 82.087,317.653 82.500 C 317.536 82.912,317.310 83.550,317.152 83.917 C 316.994 84.283,316.827 84.771,316.782 85.000 C 316.736 85.229,316.512 85.904,316.282 86.500 C 316.053 87.096,315.734 87.958,315.575 88.417 C 315.415 88.875,315.229 89.400,315.161 89.583 C 315.093 89.767,314.940 90.254,314.821 90.667 C 314.702 91.079,314.440 91.792,314.239 92.250 C 314.038 92.708,313.780 93.383,313.666 93.750 C 313.551 94.117,313.392 94.589,313.312 94.800 C 313.108 95.336,313.131 95.898,313.367 96.133 C 313.727 96.494,321.715 96.410,322.036 96.042 C 322.474 95.541,322.828 94.622,323.340 92.667 C 323.448 92.254,323.679 91.550,323.852 91.103 C 324.025 90.655,324.167 90.194,324.167 90.079 C 324.167 89.701,324.635 89.667,329.761 89.667 L 334.829 89.667 335.081 90.270 C 335.220 90.602,335.336 91.034,335.339 91.229 C 335.342 91.424,335.454 91.729,335.589 91.907 C 335.723 92.085,335.833 92.389,335.833 92.582 C 335.833 92.775,335.895 93.005,335.971 93.092 C 336.047 93.179,336.204 93.587,336.321 94.000 C 336.437 94.412,336.600 94.880,336.683 95.039 C 336.766 95.199,336.833 95.465,336.833 95.631 C 336.833 96.298,337.071 96.333,341.527 96.333 C 346.397 96.333,346.239 96.380,346.000 95.000 C 345.866 94.227,345.306 92.584,345.111 92.388 C 345.050 92.328,345.000 92.121,345.000 91.930 C 345.000 91.738,344.806 91.057,344.569 90.416 C 344.331 89.775,344.059 89.025,343.962 88.750 C 343.866 88.475,343.723 88.179,343.644 88.092 C 343.565 88.005,343.500 87.765,343.500 87.560 C 343.500 87.354,343.425 87.140,343.333 87.083 C 343.242 87.027,343.167 86.845,343.167 86.679 C 343.167 86.513,343.009 85.974,342.815 85.481 C 342.622 84.987,342.406 84.433,342.334 84.250 C 342.263 84.067,342.113 83.579,342.002 83.167 C 341.890 82.754,341.661 82.117,341.493 81.750 C 341.197 81.102,340.949 80.380,340.494 78.833 C 340.372 78.421,340.145 77.783,339.989 77.417 C 339.833 77.050,339.577 76.319,339.421 75.792 C 339.264 75.265,339.068 74.792,338.985 74.740 C 338.901 74.689,338.833 74.512,338.833 74.346 C 338.833 74.181,338.608 73.500,338.333 72.833 C 338.058 72.166,337.833 71.448,337.833 71.237 C 337.833 71.026,337.758 70.807,337.667 70.750 C 337.575 70.693,337.500 70.501,337.500 70.322 C 337.500 70.011,337.090 68.959,336.574 67.945 C 336.441 67.685,336.333 67.296,336.333 67.080 C 336.333 66.863,336.258 66.640,336.167 66.583 C 336.075 66.527,336.000 66.334,336.000 66.155 C 336.000 65.975,335.931 65.699,335.846 65.539 C 335.761 65.380,335.494 64.725,335.252 64.083 C 334.620 62.407,334.949 62.500,329.664 62.500 C 325.097 62.500,325.055 62.503,324.728 62.875 M350.114 62.903 L 349.662 63.322 349.706 79.667 C 349.745 93.982,349.781 96.032,350.000 96.170 C 350.140 96.259,352.064 96.329,354.366 96.331 C 359.574 96.334,359.000 97.040,359.000 90.630 L 359.000 85.667 362.907 85.667 C 365.332 85.667,366.853 85.603,366.917 85.500 C 366.973 85.408,367.272 85.333,367.581 85.333 C 368.682 85.333,372.270 83.247,373.510 81.885 C 374.061 81.280,375.000 79.902,375.000 79.699 C 375.000 79.612,375.099 79.458,375.220 79.358 C 375.342 79.257,375.612 78.629,375.821 77.962 C 376.030 77.296,376.268 76.620,376.350 76.461 C 376.540 76.094,376.548 70.621,376.359 70.408 C 376.282 70.321,376.090 69.826,375.932 69.308 C 375.238 67.025,373.420 65.105,370.750 63.837 C 368.541 62.788,367.343 62.669,357.908 62.565 L 350.566 62.484 350.114 62.903 M380.033 62.700 C 379.744 62.990,379.751 68.929,380.042 69.111 C 380.156 69.183,381.281 69.271,382.542 69.307 L 384.833 69.371 384.833 79.352 L 384.833 89.333 382.520 89.333 C 379.598 89.333,379.815 89.045,379.871 92.855 L 379.917 95.917 389.417 95.917 L 398.917 95.917 398.964 93.000 C 399.030 88.939,399.304 89.333,396.413 89.333 L 394.000 89.333 394.000 79.352 L 394.000 69.371 396.292 69.307 C 397.552 69.271,398.677 69.183,398.792 69.111 C 399.011 68.973,399.107 63.305,398.899 62.764 C 398.766 62.417,380.378 62.355,380.033 62.700 M363.609 70.250 C 363.938 70.387,364.350 70.500,364.524 70.500 C 365.917 70.500,366.749 71.833,366.721 74.020 C 366.679 77.219,365.736 77.966,361.542 78.126 L 359.167 78.216 359.167 74.108 L 359.167 70.000 361.089 70.000 C 362.420 70.000,363.195 70.077,363.609 70.250 M329.771 74.380 C 329.806 74.562,330.065 75.469,330.496 76.917 C 330.777 77.864,331.108 78.670,331.185 78.593 C 331.227 78.550,331.273 78.644,331.287 78.800 C 331.300 78.956,331.387 79.383,331.478 79.750 C 331.570 80.117,331.729 80.754,331.832 81.167 C 331.935 81.579,332.090 81.988,332.176 82.075 C 332.541 82.442,332.201 82.500,329.667 82.500 L 327.000 82.500 327.000 82.102 C 327.000 81.884,327.112 81.490,327.249 81.227 C 327.386 80.965,327.498 80.616,327.499 80.452 C 327.500 80.289,327.621 79.970,327.769 79.744 C 327.917 79.518,327.995 79.333,327.942 79.333 C 327.889 79.333,327.995 78.983,328.179 78.554 C 328.363 78.126,328.481 77.690,328.441 77.587 C 328.402 77.484,328.471 77.216,328.595 76.992 C 328.720 76.767,328.824 76.407,328.827 76.192 C 328.831 75.977,328.987 75.586,329.175 75.322 C 329.363 75.058,329.504 74.746,329.489 74.629 C 329.408 74.018,329.658 73.797,329.771 74.380 M29.766 77.474 C 29.708 77.567,29.742 77.694,29.842 77.755 C 30.098 77.914,30.263 77.697,30.049 77.483 C 29.930 77.363,29.836 77.360,29.766 77.474 M11.174 110.014 C 11.277 110.205,11.394 110.329,11.434 110.288 C 11.551 110.171,11.314 109.667,11.143 109.667 C 11.058 109.667,11.072 109.823,11.174 110.014 " stroke="none" fill="#549bfb" fill-rule="evenodd"></path></g></svg>